<?xml version="1.0" encoding="UTF-8" standalone="no"?>
<!-- Generator: Adobe Illustrator 24.3.0, SVG Export Plug-In . SVG Version: 6.00 Build 0)  -->

<svg
   version="1.1"
   id="Layer_1"
   x="0px"
   y="0px"
   viewBox="0 0 3000.0001 3000"
   xml:space="preserve"
   sodipodi:docname="cats_family.svg"
   inkscape:version="1.2.2 (732a01da63, 2022-12-09)"
   width="3000"
   height="3000"
   xmlns:inkscape="http://www.inkscape.org/namespaces/inkscape"
   xmlns:sodipodi="http://sodipodi.sourceforge.net/DTD/sodipodi-0.dtd"
   xmlns="http://www.w3.org/2000/svg"
   xmlns:svg="http://www.w3.org/2000/svg"><defs
   id="defs1822" /><sodipodi:namedview
   id="namedview1820"
   pagecolor="#ffffff"
   bordercolor="#000000"
   borderopacity="0.25"
   inkscape:showpageshadow="2"
   inkscape:pageopacity="0.0"
   inkscape:pagecheckerboard="0"
   inkscape:deskcolor="#d1d1d1"
   showgrid="false"
   inkscape:zoom="0.22733819"
   inkscape:cx="3593.7649"
   inkscape:cy="1425.1895"
   inkscape:window-width="1920"
   inkscape:window-height="1009"
   inkscape:window-x="3832"
   inkscape:window-y="-8"
   inkscape:window-maximized="1"
   inkscape:current-layer="g1815" />
<style
   type="text/css"
   id="style1343">
	.st0{opacity:0.2;}
	.st1{fill:#102770;}
	.st2{fill:#FFFFFF;}
	.st3{fill:#FF6C8E;}
	.st4{fill:#F3825B;}
	.st5{opacity:0.6;}
	.st6{fill:#ED2E7A;}
	.st7{fill:#6C7A89;}
	.st8{opacity:0.7;}
	.st9{fill:#4F124C;}
</style>
<g
   id="g1817">
	<g
   id="g1815">
		
		<g
   id="g1479"
   transform="translate(180.34805,519.0505)">
			<g
   id="g1353">
				<path
   class="st2"
   d="m 2003.7,375.42 c -11.23,78.51 -27.04,145.83 -27.04,145.83 0,0 -265.06,-144.58 -319.71,-374.31 0,0 70.89,-16.53 148.48,-24.77 77.45,-8.14 161.59,-8.14 188.87,24.77 29.11,35.09 22.22,139.04 9.4,228.48 z"
   id="path1349" />
				<path
   class="st1"
   d="m 1978.35,525.02 -2.88,-1.57 c -0.67,-0.36 -67.35,-37.02 -139.82,-101.33 -42.58,-37.79 -78.82,-77.6 -107.72,-118.32 -36.17,-50.98 -60.86,-103.56 -73.4,-156.27 l -0.58,-2.44 2.45,-0.57 c 0.71,-0.17 71.93,-16.66 148.79,-24.82 103.64,-10.9 167.91,-2.26 191.06,25.66 13.58,16.37 20.64,48.47 21,95.43 0.28,36.5 -3.44,81.92 -11.05,135 v 0 c -11.12,77.72 -26.92,145.37 -27.08,146.05 z m -318.37,-376.2 c 28.66,116.86 112.97,210.97 178.9,269.48 63.54,56.39 122.58,91.4 136.1,99.13 3.26,-14.38 16.55,-74.53 26.25,-142.36 v 0 c 17.26,-120.42 14.2,-198.75 -8.85,-226.53 -21.7,-26.18 -86.25,-34.44 -186.68,-23.88 -68.52,7.28 -132.56,21.2 -145.72,24.16 z"
   id="path1351" />
			</g>
			<g
   id="g1363">
				<g
   id="g1357">
					<path
   class="st3"
   d="m 1732.48,225.66 c 0,0 151,-38.55 175.1,-9.64 24.1,28.92 -8.03,192.77 -8.03,192.77 0,0 -106.42,-66.7 -167.07,-183.13 z"
   id="path1355" />
				</g>
				<g
   id="g1361">
					<path
   class="st1"
   d="m 1901.3,412.84 -3.08,-1.93 c -0.27,-0.17 -27.19,-17.16 -61.15,-48.18 -31.34,-28.63 -75.31,-75.45 -106.81,-135.92 l -1.46,-2.8 3.06,-0.78 c 0.38,-0.1 38.34,-9.74 78.77,-15.71 55.02,-8.13 88.28,-5.81 98.87,6.9 24.58,29.49 -6.18,188.11 -7.5,194.85 z M 1736.17,227.31 c 31.02,58.42 73.65,103.75 104.18,131.65 27,24.68 49.48,40.38 57.44,45.7 2.06,-11.02 8.24,-45.34 12.33,-81.71 8.19,-72.79 2.1,-97.45 -4.46,-105.32 -18.49,-22.19 -125.73,-1.21 -169.49,9.68 z"
   id="path1359" />
				</g>
			</g>
			<g
   id="g1367">
				<path
   class="st1"
   d="m 1976.66,540.52 c -3.18,0 -6.36,-0.79 -9.23,-2.35 -2.78,-1.52 -69.04,-37.95 -142.92,-103.51 -43.53,-38.63 -80.63,-79.4 -110.26,-121.16 -37.41,-52.74 -62.99,-107.28 -76.02,-162.09 -1.19,-4.99 -0.34,-10.24 2.36,-14.6 2.7,-4.36 7.02,-7.47 12.02,-8.63 2.93,-0.68 72.73,-16.83 150.53,-25.09 111.23,-11.81 178.62,-1.49 206.03,31.56 26.59,32.06 31.79,106.2 15.92,226.67 -11.24,85.3 -29.48,163.55 -29.66,164.33 -1.37,5.86 -5.4,10.74 -10.9,13.2 -2.51,1.11 -5.2,1.67 -7.87,1.67 z m -295.84,-379 c 31.14,104.74 107.89,189.72 168.6,243.71 45.64,40.59 88.98,69.94 114.13,85.73 6.21,-29.55 16.22,-80.82 23.34,-134.96 19.25,-146.3 1.23,-186.33 -7.41,-196.75 -8.28,-9.99 -41.64,-31.71 -172.28,-17.84 -51.52,5.48 -100.36,14.74 -126.38,20.11 z"
   id="path1365"
   style="fill:#1a1a1a" />
			</g>
			<g
   id="g1371">
				<path
   class="st1"
   d="m 1899.55,426.29 c -3.24,0 -6.47,-0.9 -9.3,-2.67 -1.14,-0.72 -28.35,-17.88 -63.3,-49.81 -32.23,-29.45 -77.48,-77.65 -109.99,-140.06 -2.47,-4.74 -2.64,-10.35 -0.46,-15.23 2.18,-4.88 6.47,-8.49 11.65,-9.82 1.58,-0.4 39.1,-9.93 80.28,-16.02 24.66,-3.64 45.55,-5.27 62.07,-4.85 25.35,0.65 41.41,6.05 50.52,16.98 9.24,11.09 18.61,34.79 8.97,120.39 -5.04,44.77 -12.94,85.25 -13.27,86.95 -1.11,5.66 -4.93,10.4 -10.22,12.69 -2.23,0.98 -4.59,1.45 -6.95,1.45 z M 1759.08,237.43 c 41.16,69.11 97.57,117.84 128.07,141.09 2.54,-15.36 5.63,-35.71 8.01,-56.78 8.81,-77.89 -0.02,-93.07 -0.97,-94.44 -1,-0.77 -14.7,-9.96 -82.61,0.3 -19.65,2.97 -38.6,6.79 -52.5,9.83 z"
   id="path1369"
   style="fill:#1a1a1a" />
			</g>
			<g
   class="st0"
   id="g1375">
				<path
   class="st1"
   d="m 2003.7,375.42 c -11.23,78.51 -27.04,145.83 -27.04,145.83 0,0 -265.06,-144.58 -319.71,-374.31 0,0 70.89,-16.53 148.48,-24.77 30.8,66.27 98.42,189.74 198.27,253.25 z"
   id="path1373" />
			</g>
			<g
   id="g1381">
				<path
   class="st2"
   d="m 1036.41,147.74 c 0,0 -282.73,-65.72 -337.35,0 -54.62,65.72 17.67,373.5 17.67,373.5 0,0 265.06,-144.27 319.68,-373.5 z"
   id="path1377" />
				<path
   class="st1"
   d="m 715.05,525.01 -0.75,-3.19 c -0.18,-0.77 -18.23,-78.04 -29.36,-162.35 -15.02,-113.73 -10.91,-185.51 12.2,-213.32 23.22,-27.94 87.6,-36.53 191.34,-25.53 76.77,8.14 147.79,24.53 148.5,24.7 l 2.45,0.57 -0.58,2.45 c -12.53,52.6 -37.22,105.06 -73.39,155.93 -28.89,40.64 -65.13,80.37 -107.71,118.07 C 785.28,486.51 718.6,523.09 717.93,523.45 Z M 810.2,121.06 c -49.08,0 -91.61,7.09 -109.22,28.28 -50.23,60.44 9.95,334.99 17.44,368.08 13.52,-7.72 72.56,-42.65 136.1,-98.92 65.92,-58.39 150.22,-152.28 178.86,-268.88 -18.12,-4.04 -131.94,-28.56 -223.18,-28.56 z"
   id="path1379" />
			</g>
			<g
   id="g1391">
				<g
   id="g1385">
					<path
   class="st3"
   d="m 960.91,226.29 c 0,0 -151,-38.47 -175.1,-9.62 -24.1,28.85 8.03,192.36 8.03,192.36 0,0 106.42,-66.56 167.07,-182.74 z"
   id="path1383" />
				</g>
				<g
   id="g1389">
					<path
   class="st1"
   d="m 792.09,413.08 -0.7,-3.56 c -1.32,-6.72 -32.08,-165.01 -7.5,-194.45 10.59,-12.68 43.85,-15 98.87,-6.88 40.42,5.96 78.39,15.58 78.77,15.68 l 3.06,0.78 -1.46,2.8 c -31.5,60.34 -75.47,107.06 -106.81,135.63 -33.96,30.96 -60.88,47.91 -61.15,48.08 z m 35.7,-204.56 c -19.12,0 -34.14,2.67 -40.06,9.76 -6.56,7.85 -12.65,32.46 -4.46,105.09 4.09,36.29 10.27,70.54 12.33,81.54 7.95,-5.31 30.43,-20.97 57.44,-45.6 30.52,-27.84 73.15,-73.07 104.18,-131.36 -29.76,-7.39 -88.84,-19.43 -129.43,-19.43 z"
   id="path1387" />
				</g>
			</g>
			<g
   id="g1395">
				<path
   class="st1"
   d="m 716.73,540.52 c -2.68,0 -5.36,-0.56 -7.87,-1.68 -5.49,-2.46 -9.52,-7.33 -10.89,-13.19 -0.18,-0.78 -18.42,-78.86 -29.66,-163.99 -15.88,-120.23 -10.66,-194.24 15.93,-226.24 27.41,-32.98 94.8,-43.28 206.01,-31.5 77.79,8.25 147.59,24.36 150.53,25.04 5,1.16 9.33,4.27 12.03,8.63 2.7,4.36 3.55,9.62 2.36,14.61 -13.03,54.71 -38.62,109.13 -76.03,161.77 -29.63,41.68 -66.73,82.36 -110.26,120.91 C 795,500.3 728.74,536.65 725.96,538.17 c -2.88,1.57 -6.05,2.35 -9.23,2.35 z m 93.85,-402.74 c -69.08,0 -90.32,14.62 -96.69,22.29 -8.64,10.4 -26.66,50.37 -7.36,196.55 7.12,53.95 17.11,104.96 23.3,134.37 25.14,-15.75 68.49,-45.04 114.15,-85.56 60.69,-53.86 137.42,-138.63 168.57,-243.11 -26.1,-5.38 -75.13,-14.64 -126.7,-20.09 -29.91,-3.16 -54.71,-4.45 -75.27,-4.45 z"
   id="path1393"
   style="fill:#1a1a1a" />
			</g>
			<g
   id="g1399">
				<path
   class="st1"
   d="m 793.84,426.53 c -2.36,0 -4.73,-0.48 -6.96,-1.44 -5.28,-2.29 -9.1,-7.03 -10.21,-12.68 -0.33,-1.7 -8.23,-42.09 -13.27,-86.77 -9.64,-85.45 -0.27,-109.11 8.98,-120.18 9.94,-11.9 31.71,-24.03 112.57,-12.11 41.18,6.07 78.7,15.58 80.28,15.98 5.18,1.32 9.48,4.94 11.66,9.82 2.18,4.88 2.01,10.5 -0.46,15.24 -32.51,62.28 -77.77,110.39 -110,139.77 -34.95,31.86 -62.16,49 -63.3,49.71 -2.83,1.77 -6.06,2.66 -9.29,2.66 z m 5.34,-198.56 c -0.9,1.3 -9.78,16.34 -0.95,94.21 2.38,20.99 5.46,41.27 8,56.59 30.51,-23.24 86.96,-71.94 128.04,-140.7 -13.9,-3.03 -32.82,-6.84 -52.46,-9.8 -67.96,-10.25 -81.65,-1.05 -82.63,-0.3 z m -0.06,0.05 c 0,0 0,0 0,0 0,0 0,0 0,0 z"
   id="path1397"
   style="fill:#1a1a1a" />
			</g>
			<g
   class="st0"
   id="g1403">
				<path
   class="st1"
   d="m 696.2,375.42 c 11.23,78.51 27.04,145.83 27.04,145.83 0,0 265.06,-144.58 319.71,-374.31 0,0 -70.89,-16.53 -148.48,-24.77 -30.8,66.27 -98.41,189.74 -198.27,253.25 z"
   id="path1401" />
			</g>
			<g
   id="g1409">
				<path
   class="st2"
   d="m 1351.75,1173.83 v 0.1 c -0.77,0 -1.49,-0.05 -2.22,-0.05 -0.72,0 -1.45,0.05 -2.22,0.05 v -0.1 C 731.12,1171.18 609.58,614.79 620.66,573.11 c 3.81,-14.36 16.24,-32.14 34.17,-52.43 0,0 0,0 0.05,-0.05 34.17,-38.7 88.34,-86.46 141.06,-137.06 80.29,-77.11 102.79,-157.45 215.23,-260.24 103.28,-94.41 303.86,-104.05 336.14,-104.05 22.6,0 68.67,0.96 122.41,9.88 71.42,11.86 156.43,37.73 218.17,94.17 87.52,80 120.53,146.41 168.77,208.29 13.74,17.64 28.68,34.84 46.46,51.95 34.22,32.82 69.01,64.43 98.55,93.16 39.95,38.84 70.31,72.39 76.72,96.39 11.1,41.68 -110.45,598.06 -726.64,600.71 z"
   id="path1405" />
				<path
   class="st1"
   d="m 1354.25,1176.43 h -2.5 c -0.42,0 -0.83,-0.01 -1.23,-0.03 -0.67,-0.02 -1.31,-0.02 -1.98,0 -0.4,0.01 -0.81,0.03 -1.23,0.03 h -2.5 v -0.11 C 1207.85,1175.39 1084.89,1146.8 979.33,1091.33 892.34,1045.62 817.14,981.81 755.81,901.7 694.53,821.64 660.18,742.33 642.17,689.89 620.96,628.18 615.36,583.34 618.25,572.47 c 3.61,-13.61 14.96,-31.1 34.71,-53.45 l 0.11,-0.12 c 23.83,-26.99 57.64,-58.63 93.44,-92.12 15.6,-14.6 31.74,-29.7 47.7,-45.02 35.68,-34.27 60.05,-69.4 85.84,-106.6 32.94,-47.5 67.01,-96.62 129.43,-153.69 43.97,-40.2 109.87,-69.81 195.86,-88.03 62.27,-13.19 120.09,-16.67 141.97,-16.67 41.26,0 83.73,3.43 122.82,9.91 93.85,15.58 167.68,47.47 219.45,94.79 62.39,57.03 96.44,106.12 129.37,153.6 13.25,19.1 25.76,37.14 39.68,55 15.29,19.64 29.98,36.06 46.22,51.69 15.84,15.19 31.85,30.17 47.33,44.65 18.19,17.01 35.36,33.08 51.24,48.52 34.3,33.34 70.31,71.01 77.4,97.53 2.89,10.87 -2.71,55.71 -23.92,117.42 -18.02,52.44 -52.36,131.75 -113.64,211.81 -61.32,80.12 -136.53,143.92 -223.52,189.63 -105.56,55.48 -228.53,84.07 -365.49,84.99 z m -4.43,-5.05 c 0.17,0 0.33,0.01 0.5,0.01 l 1.43,-0.06 c 314.14,-1.35 492.9,-149.03 587.54,-272.68 60.87,-79.53 94.99,-158.31 112.88,-210.4 21.62,-62.91 26.18,-105.62 23.82,-114.51 -6.77,-25.35 -42.24,-62.37 -76.05,-95.24 -15.84,-15.4 -33,-31.45 -51.17,-48.45 -15.49,-14.49 -31.51,-29.48 -47.38,-44.7 -16.42,-15.79 -31.26,-32.39 -46.7,-52.22 -14.01,-17.97 -26.56,-36.06 -39.85,-55.22 -32.78,-47.25 -66.67,-96.11 -128.64,-152.76 -51.04,-46.66 -124.01,-78.13 -216.89,-93.55 -38.82,-6.44 -81.01,-9.85 -122,-9.85 -61.57,0 -241.67,18.57 -334.46,103.39 -62,56.69 -95.91,105.57 -128.69,152.85 -25.94,37.41 -50.45,72.74 -86.49,107.35 -15.99,15.34 -32.13,30.45 -47.75,45.06 -35.71,33.41 -69.43,64.97 -93.17,91.85 l -0.11,0.12 c -19.16,21.68 -30.16,38.5 -33.56,51.35 -2.36,8.89 2.2,51.6 23.82,114.51 17.9,52.09 52.01,130.87 112.89,210.4 94.65,123.65 273.41,271.33 587.54,272.68 z"
   id="path1407" />
			</g>
			<g
   class="st0"
   id="g1413">
				<path
   class="st1"
   d="m 2047.76,528.28 c -56.39,215.87 -330.47,346.01 -700.44,346.01 -385.94,0 -629.35,-168.58 -696,-345.99 -16,18.59 -27.11,34.97 -30.65,48.36 -11.08,41.69 110.46,598.07 726.65,600.72 v 0.1 c 0.77,0 1.49,-0.05 2.22,-0.05 0.72,0 1.45,0.05 2.22,0.05 v -0.1 c 616.19,-2.65 737.73,-559.04 726.65,-600.72 -3.59,-13.39 -14.64,-29.77 -30.65,-48.38 z"
   id="path1411" />
			</g>
			<g
   id="g1417">
				<path
   class="st4"
   d="m 1856.68,337.05 c -45.03,47.19 -107.33,76.38 -176.2,76.38 -137.25,0 -248.56,-115.97 -248.56,-259.06 0,-45.42 11.18,-88.1 30.9,-125.19 72.7,12.07 159.23,38.41 222.07,95.85 89.08,81.43 122.68,149.03 171.79,212.02 z"
   id="path1415" />
			</g>
			<g
   class="st5"
   id="g1421">
				<path
   class="st2"
   d="M 760.23,447.23 C 846.32,370.12 870.45,289.78 991,186.99 1101.73,92.58 1316.79,67.94 1351.41,67.94 c 24.23,0 73.63,0.96 131.25,9.88 76.58,11.86 167.73,52.74 233.92,109.17 93.84,80 129.23,146.41 180.95,208.29 14.73,17.64 30.74,34.84 49.81,51.95 36.69,32.82 73.99,64.43 105.67,93.16 8.12,7.37 15.87,14.54 23.15,21.49 -12.28,-22.16 -38.14,-49.92 -70.23,-81.12 -29.54,-28.72 -64.34,-60.34 -98.55,-93.16 -17.78,-17.11 -32.72,-34.31 -46.46,-51.95 -48.24,-61.88 -81.25,-128.29 -168.77,-208.29 -61.73,-56.43 -146.75,-82.31 -218.17,-94.17 -53.73,-8.92 -99.81,-9.88 -122.41,-9.88 -32.29,0 -232.87,9.64 -336.14,104.05 -112.44,102.8 -134.95,183.14 -215.24,260.25 -52.72,50.6 -106.89,98.36 -141.06,137.06 -0.05,0.05 -0.05,0.05 -0.05,0.05 -12.02,13.61 -21.49,26.06 -27.63,37.13 35.68,-34.09 82.74,-73.41 128.78,-114.62 z"
   id="path1419" />
			</g>
			<g
   id="g1425">
				<path
   class="st1"
   d="m 1351.76,1193.21 c -0.52,0 -1.03,-0.01 -1.53,-0.02 -0.4,-0.01 -0.77,-0.01 -1.35,0 -1.06,0.02 -2.14,0.04 -3.2,-0.05 -140.05,-0.82 -265.91,-30.07 -374.11,-86.93 C 882.41,1059.35 805.35,993.99 742.54,911.93 679.89,830.08 644.77,748.98 626.34,695.36 607.36,640.14 597.16,586.66 602.07,568.18 c 10.32,-38.82 64.48,-89.51 133.04,-153.69 15.55,-14.55 31.62,-29.6 47.48,-44.82 34.5,-33.12 58.41,-67.59 83.72,-104.08 31.91,-46 68.08,-98.14 131.88,-156.48 C 1116.15,1.25 1345.04,0 1347.34,0 c 52.51,0 105.56,5.31 153.41,15.35 84.08,17.65 151.42,49.19 200.16,93.75 63.8,58.34 99.97,110.48 131.88,156.48 25.31,36.49 49.22,70.96 83.72,104.08 15.86,15.23 31.94,30.27 47.48,44.82 68.56,64.18 122.72,114.87 133.04,153.69 4.91,18.47 -5.3,71.96 -24.27,127.18 -18.42,53.62 -53.54,134.71 -116.19,216.57 -62.81,82.06 -139.87,147.43 -229.03,194.28 -108.21,56.87 -234.07,86.11 -374.12,86.93 -0.55,0.06 -1.11,0.08 -1.66,0.08 z m -2.25,-38.59 c 0.36,0 0.68,0 0.99,0.01 0.39,-0.03 0.78,-0.04 1.18,-0.04 233,-1.01 418.9,-81.46 552.53,-239.12 67.84,-80.04 106.4,-162.63 126.8,-217.83 25.02,-67.7 29.81,-111.82 28.68,-119.86 -7.82,-28.22 -65.88,-82.57 -122.04,-135.14 -15.63,-14.63 -31.8,-29.77 -47.84,-45.16 -37.28,-35.79 -62.26,-71.8 -88.7,-109.92 -32.26,-46.5 -65.61,-94.59 -126.22,-150 -97.73,-89.36 -261.63,-99 -327.55,-99 -21.08,0 -76.95,3.39 -137.47,16.21 -80.99,17.16 -145.19,45.79 -185.67,82.79 -60.61,55.41 -93.96,103.5 -126.22,150 -26.44,38.12 -51.42,74.13 -88.7,109.92 -16.04,15.39 -32.2,30.53 -47.84,45.16 -56.16,52.57 -114.23,106.92 -122.04,135.14 -1.13,8.04 3.65,52.17 28.68,119.87 20.4,55.2 58.96,137.79 126.8,217.83 133.64,157.65 319.54,238.11 552.53,239.12 0.4,0 0.79,0.02 1.18,0.04 0.31,-0.01 0.61,-0.02 0.92,-0.02 z m 710.26,-576.54 h 0.01 z"
   id="path1423"
   style="fill:#1a1a1a" />
			</g>
			<g
   id="g1429">
				<path
   class="st1"
   d="m 1267.71,338.66 c 7.19,-25.68 159.04,-28.92 169.88,0 10.84,28.92 -52.61,67.47 -81.73,67.47 -29.12,0 -96.58,-37.35 -88.15,-67.47 z"
   id="path1427"
   style="fill:#1a1a1a" />
			</g>
			<g
   id="g1433">
				<ellipse
   class="st2"
   cx="1352.05"
   cy="346.98001"
   rx="33.73"
   ry="11.44"
   id="ellipse1431" />
			</g>
			<g
   id="g1437">
				<path
   class="st1"
   d="m 1545.79,403.48 c 0.06,6.95 -1.68,12.42 -3.9,17.51 -1.18,2.49 -2.49,4.86 -4.02,7.04 -0.76,1.1 -1.57,2.15 -2.39,3.18 -0.81,1.05 -1.65,2.08 -2.52,3.07 -1.71,2.03 -3.51,3.97 -5.41,5.83 -1.86,1.89 -3.87,3.65 -5.9,5.38 -4.1,3.42 -8.47,6.56 -12.93,9.61 -4.45,3.06 -8.98,6.05 -13.54,9.08 -4.54,3.04 -9.27,5.96 -14.17,8.64 -9.87,5.3 -20.48,10.01 -32.24,12.85 -1.47,0.35 -2.93,0.72 -4.42,1.03 l -4.58,0.71 -2.29,0.34 -1.15,0.16 -1.18,0.08 -4.72,0.28 c -0.79,0.03 -1.57,0.11 -2.37,0.1 l -2.4,-0.07 -4.8,-0.18 c -1.61,-0.17 -3.22,-0.39 -4.82,-0.6 l -2.41,-0.33 c -0.8,-0.12 -1.59,-0.34 -2.39,-0.5 l -4.77,-1.11 c -1.56,-0.46 -3.11,-0.99 -4.66,-1.5 -0.77,-0.26 -1.55,-0.51 -2.32,-0.79 l -2.24,-0.96 c -1.48,-0.66 -3,-1.27 -4.44,-2 -5.79,-2.9 -11.08,-6.48 -15.94,-10.41 -4.78,-4 -9.05,-8.36 -12.91,-12.94 -3.84,-4.59 -7.18,-9.41 -10.23,-14.33 -3.03,-4.94 -5.7,-10 -8.06,-15.19 -1.17,-2.6 -2.3,-5.21 -3.33,-7.91 -0.53,-1.34 -1.02,-2.7 -1.5,-4.09 l -0.72,-2.13 -0.36,-1.12 -0.41,-1.37 33.28,1.33 c -3.81,10.34 -8.56,20.65 -14.88,30.54 -1.5,2.49 -3.34,4.89 -5.05,7.31 -0.91,1.19 -1.88,2.36 -2.83,3.54 l -1.44,1.76 -1.56,1.7 c -4.06,4.57 -8.78,8.82 -13.99,12.55 -5.2,3.72 -10.93,6.94 -17.02,9.3 -6.08,2.36 -12.44,3.93 -18.77,4.73 -12.7,1.61 -25.06,0.26 -36.36,-2.58 -11.36,-2.82 -21.88,-7.04 -31.75,-11.94 -9.84,-4.93 -19.18,-10.49 -28.06,-16.5 -2.22,-1.5 -4.44,-3.01 -6.59,-4.59 l -3.25,-2.34 -3.2,-2.39 c -1.06,-0.8 -2.15,-1.56 -3.26,-2.31 -1.1,-0.75 -2.19,-1.5 -3.32,-2.23 -2.26,-1.43 -4.49,-2.89 -6.66,-4.45 -4.34,-3.09 -8.03,-6.99 -10.9,-11.71 -1.41,-2.39 -2.52,-5.09 -3.2,-8.18 -0.69,-3.12 -0.99,-6.49 -0.44,-10.83 0.52,-4.09 3.66,-7.21 7.52,-7.9 l 0.92,-0.16 c 4.05,-0.71 7.36,-0.58 10.29,-0.2 2.96,0.38 5.52,1.12 7.84,2.12 4.58,2.06 8.47,4.79 11.88,8.12 l 5.07,5.07 c 0.85,0.84 1.72,1.66 2.61,2.46 0.9,0.77 1.82,1.53 2.76,2.25 1.87,1.47 3.8,2.84 5.72,4.22 1.91,1.41 3.86,2.73 5.81,4.04 7.79,5.28 15.8,10.02 23.96,14.12 4.08,2.01 8.19,3.85 12.31,5.43 4.12,1.56 8.25,2.89 12.34,3.91 8.19,2.08 16.22,2.77 23.52,1.83 3.66,-0.46 7.14,-1.33 10.45,-2.61 3.31,-1.28 6.42,-3.04 9.4,-5.17 2.97,-2.13 5.82,-4.63 8.43,-7.6 l 1,-1.08 0.94,-1.17 c 0.63,-0.79 1.28,-1.54 1.89,-2.35 1.17,-1.7 2.44,-3.28 3.52,-5.12 4.53,-7.08 8.33,-15.14 11.47,-23.68 3.33,-9.07 13.39,-13.72 22.46,-10.39 5.26,1.93 9.03,6.12 10.62,11.07 l 0.2,0.64 0.35,1.11 0.49,1.44 c 0.34,0.98 0.7,1.98 1.1,2.98 0.76,2 1.63,4 2.52,5.98 1.8,3.95 3.83,7.79 6.06,11.42 2.24,3.62 4.63,7.07 7.25,10.19 2.63,3.1 5.41,5.92 8.33,8.38 2.97,2.37 6.04,4.43 9.23,6.05 0.8,0.41 1.63,0.7 2.44,1.08 l 1.21,0.55 1.26,0.4 2.5,0.83 c 0.86,0.18 1.72,0.37 2.58,0.58 0.43,0.09 0.85,0.23 1.29,0.29 l 1.33,0.16 2.65,0.36 2.73,0.08 1.36,0.06 c 0.46,0.01 0.93,-0.06 1.4,-0.08 l 2.8,-0.16 0.7,-0.03 0.72,-0.11 1.43,-0.23 2.87,-0.42 c 0.97,-0.21 1.94,-0.48 2.91,-0.7 7.79,-1.86 15.72,-5.29 23.54,-9.48 7.78,-4.28 15.51,-9.34 22.41,-15.65 1.75,-1.53 3.45,-3.15 5.18,-4.73 1.69,-1.64 3.43,-3.2 5.17,-4.8 1.75,-1.59 3.53,-3.12 5.35,-4.65 0.91,-0.76 1.84,-1.5 2.78,-2.23 0.92,-0.76 1.87,-1.49 2.84,-2.2 0.95,-0.73 1.94,-1.43 2.91,-2.14 0.97,-0.72 1.96,-1.43 2.99,-2.09 2.06,-1.33 4.23,-2.58 6.6,-3.65 2.36,-1.09 4.87,-2.05 7.63,-2.82 2.76,-0.77 5.66,-1.43 9.16,-1.59 l 0.28,-0.01 c 4.4,-0.2 8.12,3.21 8.32,7.6 0.08,0.11 0.09,0.23 0.09,0.31 z"
   id="path1435"
   style="fill:#1a1a1a" />
			</g>
			<g
   id="g1441">
				<path
   class="st1"
   d="m 1471.23,458.24 c -1.98,55.71 -12.53,118.99 -28.82,173.16 -21.73,72.34 -53.78,128.39 -89.49,128.39 -34.75,0 -66.02,-53.06 -87.71,-122.55 -17.93,-57.35 -29.3,-125.88 -30.8,-185.01 42.94,22.02 94.7,27.81 121.83,-46.07 0,-0.02 27.66,99.07 114.99,52.08 z"
   id="path1439"
   style="fill:#4d4d4d" />
			</g>
			<g
   id="g1447">
				<path
   class="st6"
   d="m 1442.41,631.39 c -21.73,72.34 -53.78,128.39 -89.49,128.39 -34.75,0 -66.02,-53.06 -87.71,-122.55 44.57,-19.28 107.37,-32.58 177.2,-5.84 z"
   id="path1443"
   style="fill:#ff8080" />
				<path
   class="st1"
   d="m 1352.91,762.28 c -17.4,0 -34.5,-12.22 -50.82,-36.31 -14.33,-21.15 -27.91,-51.58 -39.27,-88 l -0.67,-2.15 2.06,-0.89 c 41.66,-18.01 106.55,-33.66 179.09,-5.87 l 2.17,0.83 -0.67,2.22 c -11.4,37.95 -25.17,69.76 -39.81,91.98 -16.7,25.34 -34.22,38.19 -52.08,38.19 z m -84.64,-123.64 c 23.86,75.44 54.66,118.64 84.65,118.64 16.07,0 32.18,-12.09 47.9,-35.94 14.09,-21.39 27.39,-51.92 38.52,-88.43 -68.9,-25.61 -130.63,-11.36 -171.07,5.73 z"
   id="path1445" />
			</g>
			<g
   id="g1451">
				<path
   class="st1"
   d="m 1352.9,777.29 c -47.42,0 -79.64,-63.31 -98.32,-116.43 -21.89,-62.25 -35.98,-140.08 -37.68,-208.2 -0.15,-6.17 2.96,-11.97 8.18,-15.26 5.23,-3.28 11.8,-3.57 17.3,-0.75 24.51,12.57 44.95,15.82 60.76,9.64 15.26,-5.96 27.6,-21.5 36.66,-46.18 2.62,-7.13 9.53,-11.75 17.12,-11.45 7.59,0.3 14.12,5.47 16.16,12.78 0.09,0.32 10.98,37.39 37.75,48.68 14.34,6.05 31.87,3.59 52.09,-7.29 5.52,-2.97 12.21,-2.76 17.53,0.55 5.32,3.31 8.47,9.22 8.25,15.48 -2.41,67.77 -16.8,144.35 -38.49,204.85 -26.62,74.31 -60.27,113.58 -97.31,113.58 z m -99.66,-298.34 c 4.18,57.22 16.77,120.27 34.36,170.3 24.12,68.6 49.55,93.04 65.3,93.04 15.46,0 40.48,-23.74 64.37,-90.38 17.68,-49.32 30.24,-110.01 34.85,-167 -19.69,5.46 -38.15,4.59 -55.13,-2.64 -18.79,-8 -32.14,-22.57 -41.23,-36.47 -10.9,15.9 -24.24,26.98 -39.89,33.09 -18.57,7.26 -39.55,7.27 -62.63,0.06 z"
   id="path1449"
   style="fill:#1a1a1a" />
			</g>
			<g
   id="g1455">
				<path
   class="st1"
   d="m 1745.67,451.63 c 5.94,-2.22 11.84,-3.58 17.74,-4.72 5.9,-1.14 11.79,-1.9 17.66,-2.43 11.76,-1.05 23.47,-1.03 35.17,-0.36 11.7,0.64 23.38,1.81 35.03,3.72 5.83,0.94 11.65,2.11 17.46,3.48 5.81,1.4 11.62,2.95 17.4,5.13 2.73,1.03 4.11,4.07 3.08,6.8 -0.6,1.59 -1.91,2.73 -3.42,3.2 -5.92,1.77 -11.82,2.92 -17.71,3.92 -5.89,0.97 -11.78,1.74 -17.66,2.28 -11.76,1.11 -23.49,1.47 -35.2,1.31 -11.71,-0.14 -23.41,-0.92 -35.06,-2.77 -5.83,-0.93 -11.65,-2.09 -17.46,-3.63 -5.81,-1.54 -11.61,-3.3 -17.38,-5.92 -2.72,-1.24 -3.92,-4.44 -2.69,-7.16 0.62,-1.38 1.75,-2.36 3.04,-2.85 z"
   id="path1453"
   style="fill:#1a1a1a" />
			</g>
			<g
   id="g1459">
				<path
   class="st1"
   d="m 1718.77,548.24 c 7.24,-0.3 14.23,0.23 21.15,0.97 6.91,0.77 13.73,1.83 20.47,3.16 13.48,2.64 26.65,6.32 39.62,10.6 12.98,4.26 25.81,9.02 38.41,14.52 6.31,2.7 12.55,5.66 18.73,8.79 6.17,3.17 12.3,6.47 18.24,10.38 2.4,1.58 3.07,4.81 1.49,7.21 -1.01,1.54 -2.73,2.36 -4.44,2.35 -7.11,-0.13 -14.03,-0.86 -20.92,-1.73 -6.87,-0.91 -13.69,-1.98 -20.42,-3.31 -13.5,-2.57 -26.78,-5.89 -39.9,-9.69 -13.13,-3.78 -26.07,-8.18 -38.69,-13.6 -6.31,-2.7 -12.54,-5.68 -18.68,-8.95 -6.13,-3.3 -12.2,-6.81 -18.01,-11.14 -2.35,-1.75 -2.83,-5.07 -1.08,-7.42 0.98,-1.34 2.5,-2.07 4.03,-2.14 z"
   id="path1457"
   style="fill:#1a1a1a" />
			</g>
			<g
   id="g1463">
				<path
   class="st1"
   d="m 998.17,461.63 c -5.77,2.62 -11.57,4.38 -17.38,5.92 -5.81,1.54 -11.63,2.7 -17.46,3.63 -11.66,1.85 -23.35,2.64 -35.06,2.77 -11.71,0.16 -23.45,-0.2 -35.2,-1.31 -5.88,-0.54 -11.76,-1.3 -17.66,-2.28 -5.89,-1 -11.79,-2.15 -17.71,-3.92 -2.79,-0.84 -4.38,-3.78 -3.54,-6.57 0.49,-1.63 1.72,-2.86 3.2,-3.42 5.79,-2.18 11.59,-3.72 17.4,-5.13 5.81,-1.37 11.63,-2.54 17.46,-3.48 11.65,-1.91 23.33,-3.08 35.03,-3.72 11.7,-0.67 23.42,-0.69 35.17,0.36 5.88,0.53 11.76,1.29 17.66,2.43 5.9,1.14 11.81,2.5 17.74,4.72 2.8,1.05 4.22,4.16 3.17,6.96 -0.51,1.4 -1.56,2.46 -2.82,3.04 z"
   id="path1461"
   style="fill:#1a1a1a" />
			</g>
			<g
   id="g1467">
				<path
   class="st1"
   d="m 1027.68,557.79 c -5.81,4.33 -11.88,7.84 -18.01,11.14 -6.14,3.26 -12.37,6.24 -18.68,8.95 -12.62,5.42 -25.56,9.82 -38.69,13.6 -13.12,3.8 -26.4,7.12 -39.9,9.69 -6.74,1.33 -13.56,2.41 -20.42,3.31 -6.88,0.87 -13.81,1.6 -20.92,1.73 -2.87,0.05 -5.25,-2.24 -5.3,-5.11 -0.03,-1.84 0.92,-3.49 2.35,-4.44 5.94,-3.91 12.07,-7.21 18.24,-10.38 6.18,-3.13 12.42,-6.09 18.73,-8.79 12.6,-5.5 25.43,-10.25 38.41,-14.52 12.97,-4.29 26.14,-7.96 39.62,-10.6 6.74,-1.33 13.56,-2.39 20.47,-3.16 6.92,-0.73 13.91,-1.26 21.15,-0.97 2.93,0.12 5.2,2.59 5.08,5.52 -0.07,1.65 -0.9,3.11 -2.13,4.03 z"
   id="path1465"
   style="fill:#1a1a1a" />
			</g>
			<g
   id="g1477">
				<g
   id="g1471">
					<path
   class="st1"
   d="m 980.16,309.51 c 0.31,-0.66 0.5,-1.16 0.75,-1.72 l 0.75,-1.59 c 0.52,-1.04 1.05,-2.07 1.62,-3.08 1.12,-2.02 2.34,-3.96 3.62,-5.88 2.58,-3.79 5.43,-7.43 8.57,-10.83 6.24,-6.85 13.59,-12.9 21.94,-17.84 8.34,-4.92 17.74,-8.69 27.81,-10.59 10.05,-1.93 20.7,-1.86 30.85,0.15 5.08,0.99 10.03,2.45 14.76,4.3 4.72,1.87 9.21,4.12 13.46,6.64 4.24,2.53 8.18,5.39 11.92,8.38 l 2.71,2.33 1.35,1.17 1.29,1.22 2.56,2.44 2.43,2.53 c 6.42,6.76 11.84,14.13 16.44,21.8 4.58,7.7 8.44,15.67 11.24,24.07 1.06,3.18 -0.65,6.61 -3.83,7.67 -2.09,0.7 -4.29,0.19 -5.86,-1.14 l -0.07,-0.06 c -6.46,-5.53 -12.48,-11.09 -18.61,-16.24 -6.09,-5.19 -12.24,-9.98 -18.43,-14.22 -12.37,-8.55 -25.03,-14.54 -37.62,-16.49 -6.31,-1.02 -12.63,-1.08 -19.09,-0.34 -6.46,0.75 -13.09,2.33 -19.84,4.62 -6.75,2.28 -13.6,5.26 -20.55,8.69 -3.46,1.73 -6.97,3.55 -10.47,5.5 -1.77,0.96 -3.53,1.95 -5.3,2.95 l -2.67,1.51 -1.33,0.75 c -0.43,0.23 -0.92,0.52 -1.28,0.67 l -1.43,0.61 c -3.01,1.28 -6.49,-0.12 -7.77,-3.13 -0.68,-1.62 -0.6,-3.38 0.08,-4.85 z"
   id="path1469"
   style="fill:#1a1a1a" />
				</g>
				<g
   id="g1475">
					<path
   class="st1"
   d="m 1709.79,316.86 c -0.35,-0.15 -0.85,-0.44 -1.28,-0.67 l -1.33,-0.75 -2.67,-1.51 c -1.78,-1 -3.54,-1.99 -5.3,-2.95 -3.5,-1.94 -7.01,-3.76 -10.47,-5.5 -6.95,-3.43 -13.8,-6.41 -20.55,-8.69 -6.75,-2.3 -13.37,-3.87 -19.84,-4.62 -6.47,-0.74 -12.79,-0.68 -19.09,0.34 -12.59,1.95 -25.25,7.95 -37.62,16.49 -6.19,4.24 -12.34,9.03 -18.43,14.22 -6.13,5.16 -12.16,10.71 -18.61,16.24 l -0.07,0.06 c -2.54,2.18 -6.37,1.88 -8.55,-0.66 -1.43,-1.67 -1.79,-3.91 -1.15,-5.86 2.8,-8.4 6.66,-16.37 11.24,-24.07 4.6,-7.68 10.02,-15.04 16.44,-21.8 l 2.43,-2.53 2.56,-2.44 1.29,-1.22 1.35,-1.17 2.71,-2.33 c 3.75,-2.99 7.68,-5.85 11.92,-8.38 4.25,-2.51 8.74,-4.77 13.46,-6.64 4.73,-1.85 9.68,-3.31 14.76,-4.3 10.15,-2.01 20.8,-2.08 30.85,-0.15 10.07,1.89 19.48,5.67 27.81,10.59 8.35,4.94 15.7,10.99 21.94,17.84 3.14,3.4 5.99,7.04 8.57,10.83 1.28,1.91 2.49,3.86 3.62,5.88 0.57,1 1.09,2.04 1.62,3.08 l 0.75,1.59 c 0.26,0.56 0.45,1.06 0.75,1.72 1.39,2.96 0.11,6.49 -2.86,7.87 -1.58,0.74 -3.32,0.72 -4.81,0.09 z"
   id="path1473"
   style="fill:#1a1a1a" />
				</g>
			</g>
		</g>
		<g
   id="g1709"
   transform="translate(180.34805,519.0505)">
			<g
   id="g1513">
				<g
   id="g1483">
					<path
   class="st7"
   d="m 2489.66,2070.7 c 0,102.84 -64.24,127.86 -64.24,127.86 0,0 -38.55,87.42 -102.84,87.42 -64.24,0 -83.52,-43.28 -83.52,-43.28 0,0 -146.26,117.59 -206.46,-12.72 -60.19,-130.36 29.73,-254.02 29.73,-254.02 0,0 -0.72,-4.34 -2.12,-12.29 -15.42,-86.7 -115.23,-605.88 -313.98,-708.96 6.7,2.02 436.43,135.76 618.12,655.37 0,0 34.46,15.9 67.23,45.83 29.74,27.18 58.08,65.87 58.08,114.79 z"
   id="path1481" />
				</g>
				<g
   class="st5"
   id="g1487">
					<path
   class="st2"
   d="m 2445.16,1974.55 c -32.77,-29.93 -67.23,-45.83 -67.23,-45.83 -165.11,-472.22 -535.06,-625.73 -606.2,-651.32 144.17,78.76 406.94,270.23 558.89,672.21 0,0 35.49,17.45 70.21,50.28 31.5,29.82 62.36,72.28 65.54,125.95 2,33.67 -2.2,59.68 -9.04,79.69 18.99,-15.67 45.89,-49.61 45.89,-116.18 0.02,-48.92 -28.32,-87.62 -58.06,-114.8 z"
   id="path1485" />
				</g>
				<g
   id="g1491">
					<path
   class="st2"
   d="m 2489.66,2070.7 c 0,102.84 -64.24,127.86 -64.24,127.86 0,0 -38.55,87.42 -102.84,87.42 -64.24,0 -83.52,-43.28 -83.52,-43.28 0,0 -146.26,117.59 -206.46,-12.72 -60.19,-130.36 29.73,-254.02 29.73,-254.02 0,0 -0.72,-4.34 -2.12,-12.29 139.23,-125.06 281.45,-69.93 371.37,-7.76 29.74,27.18 58.08,65.87 58.08,114.79 z"
   id="path1489" />
				</g>
				<g
   class="st0"
   id="g1495">
					<path
   class="st1"
   d="m 2425.41,2071.39 c 0,0 -38.55,87.42 -102.84,87.42 -64.24,0 -83.52,-43.28 -83.52,-43.28 0,0 -146.26,117.59 -206.46,-12.72 -5.33,-11.55 -9.44,-23.04 -12.58,-34.41 -11.3,44.88 -14,101.12 12.58,158.68 60.19,130.31 206.46,12.72 206.46,12.72 0,0 19.28,43.28 83.52,43.28 64.29,0 102.84,-87.42 102.84,-87.42 0,0 64.24,-25.01 64.24,-127.86 0,-19.99 -4.78,-38.25 -12.41,-54.74 -18.67,45.42 -51.83,58.33 -51.83,58.33 z"
   id="path1493" />
				</g>
				<g
   id="g1499">
					<path
   class="st1"
   d="m 2119.08,2310.64 c -8.72,0 -17.45,-0.9 -26.09,-2.92 -34.02,-7.98 -60.23,-31.42 -77.89,-69.65 -26.66,-57.74 -29.63,-123.37 -8.58,-189.8 11.68,-36.87 27.67,-64.38 35.52,-76.64 -0.24,-1.36 -0.51,-2.91 -0.81,-4.62 -7.57,-42.58 -36.29,-193.46 -87.52,-345.52 -28.95,-85.93 -60.37,-158.27 -93.39,-215.01 -39.2,-67.37 -80.57,-112.67 -122.95,-134.66 -8.84,-4.58 -12.73,-15.14 -8.98,-24.37 3.75,-9.22 13.9,-14.08 23.44,-11.2 4.64,1.4 115.13,35.49 249.46,136.64 77.26,58.18 146.59,126.85 206.07,204.09 72.6,94.28 130.65,201.69 172.61,319.36 12.59,6.64 39.02,21.93 64.63,45.33 42.1,38.48 64.35,83.1 64.35,129.03 0,94.31 -49.62,131.29 -69,142.13 -11.24,22.19 -51.99,92.42 -117.36,92.42 -46.66,0 -73.8,-19.84 -88.01,-35.64 -23.64,15.64 -69.13,41.03 -115.5,41.03 z m -269.19,-989.07 c 50.94,65.48 97.91,161.64 140.35,287.6 52.08,154.59 81.25,307.83 88.95,351.12 1.42,8.1 2.16,12.5 2.16,12.5 0.85,5.1 -0.38,10.33 -3.42,14.51 -0.19,0.26 -21.29,29.79 -35.02,73.78 -17.95,57.5 -15.53,111.61 7.2,160.83 12.59,27.25 29.47,43.04 51.62,48.27 55.08,13 124.58,-41.94 125.28,-42.5 4.74,-3.79 10.89,-5.39 16.77,-3.88 5.84,1.51 10.53,5.4 12.85,10.96 1.29,2.56 17.11,31.96 65.96,31.96 42.18,0 75.82,-54.83 85.22,-75.95 2.12,-4.76 5.65,-8.33 10.54,-10.12 3.45,-1.49 52.05,-24.04 52.05,-109.93 0,-35.31 -17.43,-69.15 -51.8,-100.57 -29.98,-27.38 -62.01,-42.42 -62.33,-42.57 -4.72,-2.19 -8.38,-6.22 -10.09,-11.13 -92.41,-264.28 -251.17,-424.7 -368.08,-512.75 -46.97,-35.36 -91.06,-62.23 -128.21,-82.13 z"
   id="path1497"
   style="fill:#1a1a1a" />
				</g>
				<g
   id="g1503">
					<path
   class="st1"
   d="m 2358.08,1926.41 c -0.3,-0.04 -0.55,-0.07 -0.89,-0.13 l -1,-0.19 -2.01,-0.42 c -1.36,-0.28 -2.69,-0.62 -4.06,-0.93 -1.36,-0.32 -2.71,-0.67 -4.05,-1.03 -1.36,-0.32 -2.71,-0.72 -4.06,-1.07 -5.39,-1.48 -10.76,-3.09 -16.11,-4.8 -5.36,-1.65 -10.68,-3.48 -16.03,-5.26 l -4,-1.41 -4.01,-1.35 -4.02,-1.35 c -1.34,-0.48 -2.68,-0.93 -4.03,-1.35 -2.69,-0.86 -5.39,-1.72 -8.09,-2.64 -2.71,-0.84 -5.42,-1.63 -8.14,-2.51 -2.72,-0.89 -5.45,-1.65 -8.19,-2.45 -1.37,-0.41 -2.75,-0.79 -4.12,-1.21 -1.38,-0.43 -2.75,-0.85 -4.14,-1.19 -11.07,-3.18 -22.28,-5.76 -34,-8.65 l -0.11,-0.03 c -1.39,-0.34 -2.23,-1.74 -1.89,-3.12 0.22,-0.9 0.9,-1.58 1.72,-1.84 2.91,-0.93 5.86,-1.78 8.83,-2.59 1.49,-0.37 2.99,-0.84 4.48,-1.12 l 4.51,-0.88 c 3.01,-0.54 6.07,-1.18 9.1,-1.53 3.04,-0.36 6.09,-0.72 9.16,-1.02 3.07,-0.33 6.11,-0.42 9.18,-0.58 l 4.61,-0.21 c 1.54,-0.06 3.06,-0.02 4.59,-0.03 3.06,-0.01 6.13,0.01 9.2,0.09 3.05,0.12 6.11,0.29 9.17,0.47 3.08,0.12 6.09,0.48 9.14,0.76 l 4.57,0.45 c 1.52,0.16 3.03,0.39 4.54,0.59 6.06,0.81 12.05,1.91 17.98,3.3 5.93,1.39 11.79,3.04 17.55,5.07 2.87,1.02 5.74,2.09 8.57,3.33 1.41,0.59 2.83,1.25 4.23,1.93 0.7,0.32 1.41,0.69 2.12,1.06 l 1.06,0.56 1.16,0.63 c 8.55,4.66 11.69,15.37 7.03,23.91 -3.64,6.66 -10.94,10.04 -18.04,9 z"
   id="path1501"
   style="fill:#1a1a1a" />
				</g>
				<g
   id="g1507">
					<path
   class="st1"
   d="m 2398.1,2069.61 c 2.91,1.43 5.5,3 8.1,4.73 2.56,1.74 5.06,3.6 7.45,5.6 4.81,3.97 9.26,8.44 13.36,13.3 8.2,9.71 14.81,21.15 19.3,33.68 l 1.6,4.74 1.32,4.85 c 0.47,1.62 0.77,3.27 1.14,4.91 0.36,1.65 0.7,3.3 0.92,4.98 0.23,1.67 0.47,3.35 0.68,5.03 0.14,1.68 0.25,3.37 0.35,5.06 0.14,1.69 0.14,3.38 0.12,5.07 -0.02,1.69 -0.01,3.39 -0.13,5.07 -0.27,3.36 -0.49,6.75 -1.1,10.04 -0.29,1.65 -0.56,3.32 -0.89,4.96 l -1.23,4.86 c -0.43,1.61 -0.85,3.23 -1.44,4.78 -0.54,1.57 -1.1,3.13 -1.69,4.67 -0.27,0.78 -0.6,1.54 -0.95,2.28 -0.33,0.75 -0.69,1.5 -1.04,2.24 -0.71,1.49 -1.44,2.96 -2.23,4.39 -4.71,8.51 -15.43,11.59 -23.95,6.88 -6.47,-3.58 -9.8,-10.64 -8.96,-17.56 l 0.24,-1.88 c 0.32,-2.57 0.96,-5.01 1.44,-7.46 0.4,-2.46 1.1,-4.84 1.46,-7.25 0.22,-1.2 0.48,-2.39 0.72,-3.58 l 0.6,-3.58 c 0.52,-2.37 0.7,-4.76 1.14,-7.13 0.16,-1.19 0.25,-2.38 0.41,-3.57 l 0.23,-1.79 c 0.08,-0.6 0.09,-1.19 0.15,-1.79 0.09,-1.2 0.21,-2.4 0.33,-3.6 0.04,-1.2 0.12,-2.41 0.18,-3.62 0.23,-4.85 0.24,-9.77 -0.2,-14.75 -0.85,-9.94 -2.99,-20.16 -6.52,-30.36 -1.73,-5.12 -3.83,-10.2 -6.19,-15.29 -1.17,-2.55 -2.44,-5.08 -3.77,-7.6 -1.31,-2.51 -2.76,-5.09 -4.18,-7.48 l -0.11,-0.19 c -0.73,-1.22 -0.33,-2.8 0.9,-3.53 0.75,-0.47 1.68,-0.47 2.44,-0.11 z"
   id="path1505"
   style="fill:#1a1a1a" />
				</g>
				<g
   id="g1511">
					<path
   class="st1"
   d="m 2246.2,2143.11 c 0.25,8.96 0.3,17.65 0.58,26.07 0.26,8.42 0.72,16.6 1.49,24.44 0.77,7.84 2.11,15.28 3.23,22.2 l 1.85,10.03 c 0.62,3.23 1.28,6.33 1.64,9.63 l 0.28,2.57 c 1.05,9.7 -5.96,18.42 -15.66,19.47 -6.71,0.73 -12.96,-2.42 -16.51,-7.63 -3.1,-4.55 -5.2,-9.59 -6.75,-14.65 -1.48,-5.07 -2.3,-10.21 -2.65,-15.27 -0.34,-5.06 -0.13,-10.04 0.41,-14.92 0.3,-2.43 0.68,-4.84 1.14,-7.2 0.4,-2.38 0.96,-4.71 1.53,-7.03 2.32,-9.24 5.58,-18.01 9.67,-26.3 2.06,-4.14 4.29,-8.17 6.78,-12.05 2.5,-3.89 5.16,-7.62 8.32,-11.18 0.97,-1.1 2.66,-1.2 3.76,-0.23 0.57,0.51 0.87,1.2 0.9,1.91 z"
   id="path1509"
   style="fill:#1a1a1a" />
				</g>
			</g>
			<g
   id="g1547">
				<g
   id="g1517">
					<path
   class="st7"
   d="m 225.48,2073.35 c 0,102.84 64.24,127.86 64.24,127.86 0,0 38.55,87.42 102.84,87.42 64.24,0 83.52,-43.28 83.52,-43.28 0,0 146.26,117.59 206.46,-12.72 60.19,-130.36 -29.73,-254.02 -29.73,-254.02 0,0 0.72,-4.34 2.12,-12.29 15.42,-86.7 115.23,-605.88 313.98,-708.96 -6.7,2.02 -436.43,135.76 -618.12,655.37 0,0 -34.46,15.9 -67.23,45.83 -29.74,27.17 -58.08,65.87 -58.08,114.79 z"
   id="path1515" />
				</g>
				<g
   class="st5"
   id="g1521">
					<path
   class="st2"
   d="m 269.97,1977.2 c 32.77,-29.93 67.23,-45.83 67.23,-45.83 165.11,-472.22 535.06,-625.73 606.2,-651.32 -144.17,78.76 -406.94,270.23 -558.89,672.21 0,0 -35.49,17.45 -70.21,50.28 -31.5,29.82 -62.36,72.28 -65.54,125.95 -2,33.67 2.2,59.68 9.04,79.69 -18.99,-15.67 -45.89,-49.61 -45.89,-116.18 -0.01,-48.92 28.33,-87.62 58.06,-114.8 z"
   id="path1519" />
				</g>
				<g
   id="g1525">
					<path
   class="st2"
   d="m 225.48,2073.35 c 0,102.84 64.24,127.86 64.24,127.86 0,0 38.55,87.42 102.84,87.42 64.24,0 83.52,-43.28 83.52,-43.28 0,0 146.26,117.59 206.46,-12.72 60.19,-130.36 -29.73,-254.02 -29.73,-254.02 0,0 0.72,-4.34 2.12,-12.29 -139.23,-125.06 -281.45,-69.93 -371.37,-7.76 -29.74,27.17 -58.08,65.87 -58.08,114.79 z"
   id="path1523" />
				</g>
				<g
   class="st0"
   id="g1529">
					<path
   class="st1"
   d="m 289.73,2074.04 c 0,0 38.55,87.42 102.84,87.42 64.24,0 83.52,-43.28 83.52,-43.28 0,0 146.26,117.59 206.46,-12.72 5.33,-11.55 9.44,-23.04 12.58,-34.41 11.3,44.88 14,101.12 -12.58,158.68 -60.19,130.31 -206.46,12.72 -206.46,12.72 0,0 -19.28,43.28 -83.52,43.28 -64.29,0 -102.84,-87.42 -102.84,-87.42 0,0 -64.24,-25.01 -64.24,-127.86 0,-19.99 4.78,-38.25 12.41,-54.74 18.67,45.42 51.83,58.33 51.83,58.33 z"
   id="path1527" />
				</g>
				<g
   id="g1533"
   style="fill:#1a1a1a">
					<path
   class="st1"
   d="m 596.06,2313.29 c -46.37,0 -91.86,-25.39 -115.48,-41.03 -14.21,15.8 -41.35,35.64 -88.01,35.64 -65.37,0 -106.12,-70.23 -117.36,-92.42 -19.38,-10.84 -69,-47.82 -69,-142.13 0,-45.93 22.25,-90.55 64.34,-129.02 25.62,-23.4 52.04,-38.69 64.64,-45.33 41.96,-117.67 100.01,-225.07 172.61,-319.36 59.47,-77.24 128.81,-145.91 206.07,-204.09 134.33,-101.16 244.82,-135.24 249.46,-136.64 9.53,-2.88 19.69,1.97 23.43,11.2 3.75,9.22 -0.14,19.79 -8.98,24.37 -42.38,21.98 -83.75,67.29 -122.95,134.66 -33.02,56.74 -64.44,129.09 -93.39,215.01 -51.23,152.05 -79.95,302.94 -87.53,345.56 -0.3,1.7 -0.56,3.22 -0.8,4.58 7.85,12.26 23.83,39.76 35.52,76.64 21.05,66.43 18.08,132.06 -8.58,189.8 -17.66,38.24 -43.87,61.67 -77.89,69.66 -8.64,2 -17.39,2.9 -26.1,2.9 z m -120.2,-87.43 c 4.42,0 8.76,1.62 12.3,4.47 0.68,0.54 70.18,55.48 125.26,42.49 22.15,-5.22 39.03,-21.01 51.62,-48.27 22.72,-49.21 25.14,-103.32 7.2,-160.82 -13.73,-43.99 -34.83,-73.52 -35.04,-73.81 -3.01,-4.17 -4.25,-9.4 -3.4,-14.48 0,0 0.73,-4.4 2.15,-12.46 7.71,-43.33 36.88,-196.57 88.96,-351.16 42.44,-125.96 89.41,-222.12 140.35,-287.6 -37.15,19.9 -81.24,46.77 -128.19,82.12 -116.91,88.04 -275.67,248.47 -368.08,512.75 -1.72,4.93 -5.38,8.95 -10.12,11.14 -0.3,0.14 -32.33,15.18 -62.31,42.56 -34.37,31.41 -51.79,65.25 -51.79,100.56 0,85.9 48.62,108.44 52.05,109.93 4.9,1.8 8.44,5.36 10.55,10.15 9.39,21.1 43.02,75.92 85.21,75.92 48.85,0 64.67,-29.39 65.96,-31.96 2.33,-5.56 7.02,-9.46 12.87,-10.97 1.46,-0.38 2.96,-0.56 4.45,-0.56 z m -178.93,-42.53 z"
   id="path1531"
   style="fill:#1a1a1a" />
				</g>
				<g
   id="g1537">
					<path
   class="st1"
   d="m 344.53,1896.38 1.16,-0.63 1.06,-0.56 c 0.71,-0.36 1.42,-0.73 2.12,-1.06 1.4,-0.67 2.82,-1.33 4.23,-1.93 2.82,-1.23 5.69,-2.31 8.57,-3.33 5.76,-2.03 11.62,-3.68 17.55,-5.07 5.93,-1.38 11.93,-2.49 17.98,-3.3 1.51,-0.19 3.02,-0.42 4.54,-0.59 l 4.57,-0.45 c 3.05,-0.29 6.07,-0.64 9.14,-0.76 3.06,-0.18 6.11,-0.35 9.17,-0.47 3.07,-0.08 6.14,-0.1 9.2,-0.09 1.53,0.01 3.05,-0.03 4.59,0.03 l 4.61,0.21 c 3.07,0.16 6.11,0.25 9.18,0.58 3.07,0.31 6.12,0.66 9.16,1.02 3.04,0.35 6.09,0.99 9.1,1.53 l 4.51,0.88 c 1.5,0.28 3,0.75 4.48,1.12 2.98,0.81 5.92,1.66 8.83,2.59 1.36,0.43 2.11,1.89 1.67,3.24 -0.28,0.88 -1,1.51 -1.84,1.72 l -0.11,0.03 c -11.72,2.89 -22.93,5.47 -34,8.65 -1.38,0.34 -2.76,0.76 -4.14,1.19 -1.37,0.43 -2.75,0.81 -4.12,1.21 -2.74,0.8 -5.47,1.57 -8.19,2.46 -2.72,0.88 -5.44,1.68 -8.14,2.51 -2.7,0.92 -5.4,1.79 -8.09,2.64 -1.35,0.42 -2.69,0.86 -4.03,1.35 l -4.02,1.35 -4.01,1.35 -4,1.41 c -5.34,1.79 -10.67,3.61 -16.03,5.26 -5.35,1.71 -10.71,3.32 -16.11,4.8 -1.35,0.36 -2.69,0.75 -4.06,1.07 -1.34,0.36 -2.69,0.71 -4.05,1.03 -1.37,0.31 -2.69,0.65 -4.06,0.93 l -2.01,0.42 -1,0.19 c -0.34,0.06 -0.59,0.09 -0.89,0.13 l -1.49,0.22 c -9.63,1.44 -18.6,-5.2 -20.03,-14.83 -1.12,-7.48 2.71,-14.6 9,-18.05 z"
   id="path1535"
   style="fill:#1a1a1a" />
				</g>
				<g
   id="g1541">
					<path
   class="st1"
   d="m 320.28,2076.07 c -1.42,2.39 -2.87,4.97 -4.18,7.48 -1.33,2.52 -2.6,5.05 -3.77,7.6 -2.36,5.09 -4.45,10.17 -6.19,15.29 -3.54,10.2 -5.67,20.42 -6.52,30.36 -0.44,4.98 -0.43,9.9 -0.2,14.75 0.07,1.21 0.14,2.42 0.18,3.62 0.12,1.21 0.24,2.41 0.33,3.6 0.06,0.6 0.08,1.2 0.15,1.79 l 0.23,1.79 c 0.16,1.19 0.25,2.38 0.41,3.57 0.44,2.38 0.62,4.76 1.14,7.13 l 0.6,3.58 c 0.24,1.19 0.5,2.38 0.72,3.58 0.35,2.41 1.06,4.79 1.46,7.25 0.48,2.45 1.12,4.89 1.44,7.46 l 0.23,1.87 c 1.19,9.66 -5.67,18.45 -15.33,19.65 -7.34,0.91 -14.19,-2.86 -17.57,-8.95 -0.8,-1.44 -1.53,-2.91 -2.23,-4.39 -0.35,-0.74 -0.71,-1.49 -1.04,-2.24 -0.35,-0.74 -0.68,-1.5 -0.95,-2.28 -0.59,-1.55 -1.15,-3.11 -1.69,-4.67 -0.59,-1.55 -1.01,-3.16 -1.44,-4.78 l -1.23,-4.86 c -0.33,-1.64 -0.6,-3.31 -0.89,-4.96 -0.61,-3.3 -0.83,-6.69 -1.1,-10.04 -0.11,-1.68 -0.1,-3.38 -0.12,-5.07 -0.02,-1.69 -0.02,-3.38 0.12,-5.07 0.1,-1.69 0.21,-3.38 0.35,-5.06 0.2,-1.68 0.44,-3.36 0.68,-5.03 0.22,-1.67 0.57,-3.33 0.92,-4.98 0.36,-1.65 0.67,-3.3 1.14,-4.91 l 1.32,-4.85 1.6,-4.74 c 4.49,-12.53 11.11,-23.97 19.3,-33.68 4.09,-4.86 8.55,-9.32 13.36,-13.29 2.39,-2 4.88,-3.86 7.45,-5.6 2.6,-1.74 5.19,-3.3 8.1,-4.73 1.28,-0.63 2.82,-0.1 3.45,1.17 0.4,0.81 0.33,1.72 -0.09,2.44 z"
   id="path1539"
   style="fill:#1a1a1a" />
				</g>
				<g
   id="g1545">
					<path
   class="st1"
   d="m 473.6,2143.94 c 3.16,3.57 5.82,7.29 8.32,11.18 2.5,3.88 4.72,7.91 6.78,12.05 4.08,8.29 7.35,17.06 9.67,26.3 0.57,2.32 1.12,4.64 1.53,7.03 0.46,2.37 0.83,4.78 1.14,7.2 0.54,4.87 0.75,9.86 0.41,14.92 -0.35,5.07 -1.17,10.2 -2.65,15.27 -1.55,5.06 -3.66,10.1 -6.75,14.65 -5.49,8.07 -16.48,10.16 -24.54,4.67 -5.58,-3.79 -8.3,-10.22 -7.63,-16.49 l 0.28,-2.6 c 0.36,-3.3 1.03,-6.4 1.64,-9.63 l 1.85,-10.03 c 1.13,-6.92 2.47,-14.36 3.23,-22.2 0.78,-7.84 1.23,-16.02 1.49,-24.44 0.29,-8.42 0.33,-17.11 0.58,-26.07 v -0.13 c 0.04,-1.47 1.27,-2.63 2.73,-2.59 0.76,0.04 1.45,0.38 1.92,0.91 z"
   id="path1543"
   style="fill:#1a1a1a" />
				</g>
			</g>
			<g
   id="g1551">
				<path
   class="st7"
   d="M 1142.11,1097.22 697.13,1567.9 c 0,0 -57.83,-676.31 67.47,-750.2 125.3,-73.89 377.51,271.49 377.51,271.49 z"
   id="path1549" />
			</g>
			<g
   id="g1555">
				<path
   class="st7"
   d="m 2002.9,1567.89 -444.96,-470.65 v -8.05 c 0,0 52.53,-71.95 121.59,-143.18 82.22,-84.77 187.81,-168.48 255.9,-128.29 59.81,35.28 77.88,207.76 80.43,378.51 2.84,186.93 -12.96,371.66 -12.96,371.66 z"
   id="path1553" />
			</g>
			<g
   class="st5"
   id="g1559">
				<path
   class="st2"
   d="m 1932.62,897.29 c 68.22,34.85 89.4,203.72 92.75,372.43 1.57,-191.47 -12.22,-411.64 -80.68,-452.01 -125.3,-73.9 -377.51,271.49 -377.51,271.49 v 3.38 c 95.43,-97.05 265.44,-246.38 365.44,-195.29 z"
   id="path1557" />
			</g>
			<g
   id="g1569">
				<g
   id="g1563">
					<path
   class="st3"
   d="m 1701.64,1171.03 c 0,0 114.92,-192.68 174.36,-150.91 59.44,41.77 24.1,363.05 24.1,363.05 z"
   id="path1561" />
				</g>
				<g
   id="g1567">
					<path
   class="st1"
   d="m 1901.98,1388.85 -203.45,-217.49 0.96,-1.62 c 0.21,-0.36 21.69,-36.24 50.44,-73.26 38.83,-50.01 71.78,-78.2 97.93,-83.78 11.17,-2.39 21.12,-0.58 29.58,5.36 25.37,17.83 37.28,84.87 35.4,199.28 -1.39,84.68 -10.17,165.29 -10.26,166.1 z m -197.22,-218.15 193.41,206.75 c 1.97,-19.48 8.48,-88.39 9.66,-160.23 1.82,-111.04 -9.68,-178.49 -33.28,-195.07 -7.37,-5.18 -15.76,-6.67 -25.66,-4.56 -56.36,12.04 -134.53,137.4 -144.13,153.11 z"
   id="path1565" />
				</g>
			</g>
			<g
   class="st0"
   id="g1573">
				<path
   class="st1"
   d="M 2015.86,1196.22 C 1822.08,1143.4 1724,1016.27 1679.52,946 c 82.22,-84.77 187.81,-168.48 255.9,-128.29 59.81,35.28 77.89,207.77 80.44,378.51 z"
   id="path1571" />
			</g>
			<g
   id="g1577">
				<path
   class="st1"
   d="m 2002.91,1587.18 c -5.21,0 -10.31,-2.11 -14.01,-6.03 l -437.22,-462.47 c -7.58,-2.59 -13.03,-9.78 -13.03,-18.24 v -3.18 c 0,-0.02 0,-0.03 0,-0.05 v -8.01 c 0,-4.09 1.3,-8.07 3.71,-11.37 2.61,-3.58 64.9,-88.52 143.85,-165.86 111.47,-109.19 198.61,-146.49 259.03,-110.87 34.2,20.17 57.96,73.11 72.63,161.85 10.96,66.28 16.87,152.9 17.58,257.43 1.2,177.15 -13.18,347.46 -13.32,349.16 -0.65,7.57 -5.68,14.05 -12.85,16.56 -2.1,0.73 -4.25,1.08 -6.37,1.08 z m -423.18,-494.95 407.17,430.69 c 4.16,-61.55 10.81,-180.43 9.97,-302.52 -0.7,-102.47 -6.45,-187 -17.08,-251.26 -16.41,-99.2 -40.98,-127.06 -54.16,-134.83 -42.25,-24.91 -117.59,12.34 -212.16,104.91 -62.72,61.4 -116.04,129.67 -133.74,153.01 z"
   id="path1575"
   style="fill:#1a1a1a" />
			</g>
			<g
   id="g1581">
				<path
   class="st1"
   d="m 1900.09,1400.67 c -4.76,0 -9.42,-1.95 -12.78,-5.55 l -198.45,-212.14 c -5.33,-5.69 -6.24,-14.22 -2.25,-20.92 0.89,-1.49 22.17,-37.04 51.47,-74.77 41.64,-53.63 76.53,-82.82 106.64,-89.25 15.2,-3.24 29.49,-0.56 41.33,7.76 18.18,12.77 29.65,40.18 36.11,86.24 4.59,32.74 6.5,74.99 5.66,125.56 -1.4,85.37 -10.25,166.68 -10.34,167.49 -0.75,6.79 -5.38,12.53 -11.87,14.69 -1.8,0.59 -3.67,0.89 -5.52,0.89 z m -176.51,-231.8 162.69,173.92 c 2.6,-31.31 5.78,-78.02 6.56,-125.99 2.44,-149.95 -19.98,-177.49 -26.91,-182.36 -2.61,-1.83 -6.54,-3.73 -13.9,-2.16 -12.02,2.56 -39.19,15.87 -86.1,76.21 -18.47,23.77 -33.9,47.12 -42.34,60.38 z"
   id="path1579"
   style="fill:#1a1a1a" />
			</g>
			<g
   class="st5"
   id="g1585">
				<path
   class="st2"
   d="m 774.15,895.42 c 100.75,-52.92 274.56,109.2 365.11,205.5 l 2.85,-3.01 v -8.03 c 0,0 -252.21,-345.38 -377.51,-271.49 -68.3,40.28 -82.18,259.51 -80.69,450.66 3.19,-169.12 23.73,-338.7 90.24,-373.63 z"
   id="path1583" />
			</g>
			<g
   id="g1595">
				<g
   id="g1589">
					<path
   class="st3"
   d="m 998.4,1159.96 c 0,0 -114.92,-192.68 -174.36,-150.91 -59.44,41.77 -24.1,363.05 -24.1,363.05 z"
   id="path1587" />
				</g>
				<g
   id="g1593">
					<path
   class="st1"
   d="m 798.06,1377.78 -0.59,-5.41 c -0.09,-0.8 -8.86,-81.42 -10.26,-166.1 -1.88,-114.4 10.03,-181.45 35.4,-199.27 8.45,-5.94 18.4,-7.74 29.58,-5.36 26.15,5.58 59.09,33.77 97.93,83.78 28.74,37.02 50.22,72.9 50.44,73.26 l 0.96,1.62 z m 44.78,-372.17 c -6.41,0 -12.14,1.82 -17.36,5.49 -23.59,16.58 -35.1,84.03 -33.28,195.07 1.18,71.83 7.69,140.74 9.66,160.23 l 193.41,-206.75 c -9.6,-15.71 -87.77,-141.07 -144.14,-153.1 -2.88,-0.63 -5.64,-0.94 -8.29,-0.94 z"
   id="path1591" />
				</g>
			</g>
			<g
   class="st0"
   id="g1599">
				<path
   class="st1"
   d="M 690.1,1196.22 C 883.88,1143.4 981.96,1016.27 1026.44,946 944.22,861.23 838.63,777.52 770.54,817.71 c -59.82,35.28 -77.89,207.77 -80.44,378.51 z"
   id="path1597" />
			</g>
			<g
   id="g1603">
				<path
   class="st1"
   d="m 697.13,1587.18 c -2.13,0 -4.27,-0.35 -6.35,-1.08 -7.17,-2.5 -12.2,-8.99 -12.85,-16.56 -0.15,-1.7 -14.52,-172.01 -13.32,-349.16 0.71,-104.54 6.62,-191.15 17.58,-257.43 14.67,-88.74 38.43,-141.68 72.63,-161.85 60.41,-35.63 147.56,1.67 259.03,110.87 78.95,77.33 141.23,162.28 143.85,165.86 2.41,3.3 3.71,7.28 3.71,11.37 v 8.03 c 0,4.93 -1.89,9.66 -5.27,13.24 l -444.98,470.68 c -3.72,3.92 -8.82,6.03 -14.03,6.03 z M 804.04,826.76 c -11.16,0 -21.08,2.5 -29.64,7.54 -13.18,7.77 -37.75,35.63 -54.16,134.83 -10.63,64.26 -16.38,148.79 -17.08,251.26 -0.83,122.09 5.81,240.96 9.97,302.52 L 1120.3,1092.22 C 1102.6,1068.89 1049.28,1000.61 986.56,939.21 911.15,865.41 847.97,826.76 804.04,826.76 Z m 338.07,270.46 z"
   id="path1601"
   style="fill:#1a1a1a" />
			</g>
			<g
   id="g1607">
				<path
   class="st1"
   d="m 799.94,1400.67 c -1.85,0 -3.71,-0.29 -5.52,-0.9 -6.49,-2.16 -11.12,-7.9 -11.87,-14.69 -0.09,-0.81 -8.94,-82.12 -10.34,-167.49 -0.83,-50.57 1.07,-92.82 5.66,-125.56 6.46,-46.06 17.93,-73.46 36.11,-86.24 11.84,-8.32 26.13,-11 41.33,-7.76 30.12,6.43 65,35.62 106.64,89.25 29.3,37.74 50.58,73.28 51.47,74.77 3.99,6.7 3.08,15.23 -2.25,20.92 l -198.45,212.14 c -3.36,3.61 -8.01,5.56 -12.78,5.56 z m 42.97,-368.98 c -4.23,0 -6.88,1.39 -8.8,2.75 -6.93,4.87 -29.37,32.44 -26.9,182.58 0.79,47.93 3.97,94.53 6.56,125.77 l 162.69,-173.92 c -8.43,-13.26 -23.87,-36.61 -42.35,-60.39 -46.91,-60.34 -74.08,-73.65 -86.1,-76.21 -1.93,-0.41 -3.61,-0.58 -5.1,-0.58 z"
   id="path1605"
   style="fill:#1a1a1a" />
			</g>
			<g
   id="g1611">
				<path
   class="st7"
   d="m 2161.94,1982.36 c 0,36.05 -4.53,69.78 -13.16,101.2 -68.87,250.12 -399.28,356.63 -796.48,356.63 -397.2,0 -727.61,-106.51 -796.48,-356.63 -8.1,-29.45 -12.58,-60.96 -13.11,-94.46 -0.05,-0.29 -0.05,-0.58 0,-0.87 -0.05,-1.98 -0.05,-3.9 -0.05,-5.88 0,-72.34 15.95,-144.96 42.02,-217.83 29.16,-81.49 70.94,-163.23 117.01,-244.82 145.49,-257.49 371.13,-559.04 650.6,-559.04 279.47,0 505.11,301.54 650.6,559.04 42.07,74.46 80.53,149.06 109.06,223.47 2.79,7.13 5.4,14.22 7.95,21.35 26.09,72.88 42.04,145.51 42.04,217.84 z"
   id="path1609" />
			</g>
			<g
   class="st5"
   id="g1615">
				<path
   class="st2"
   d="m 661.42,1602.64 c 155.02,-257.49 401.78,-574.22 699.55,-574.22 297.77,0 531.84,316.72 686.86,574.22 13.54,22.48 26.65,44.98 39.3,67.48 -23.99,-52.96 -51.99,-105.96 -81.9,-158.89 -145.49,-257.49 -371.13,-559.04 -650.6,-559.04 -279.47,0 -505.11,301.54 -650.6,559.04 -29.93,53.01 -58.03,106.08 -82.06,159.11 12.68,-22.58 25.88,-45.15 39.45,-67.7 z"
   id="path1613" />
			</g>
			<g
   id="g1619">
				<path
   class="st2"
   d="m 2161.94,1982.36 c 0,36.05 -4.53,69.78 -13.16,101.2 -68.87,250.12 -399.28,356.63 -796.48,356.63 -397.2,0 -727.61,-106.51 -796.48,-356.63 -8.1,-29.45 -12.58,-60.96 -13.11,-94.46 -0.05,-0.29 -0.05,-0.58 0,-0.87 0.39,-72.29 16.43,-144.87 42.51,-217.64 50.94,-79.37 133.49,-138.7 267.37,-125.98 0,0 -31.66,-317.3 183.13,-346.55 148.66,-20.28 240.9,104.47 283.6,183.18 12.28,22.65 44.79,22.94 57.45,0.51 44.42,-78.67 139.76,-204.02 288.78,-183.69 214.8,29.25 203.37,346.55 203.37,346.55 101.35,-9.64 180.24,15.76 224.34,72.34 6.6,8.48 12.87,17.2 18.7,26.22 2.79,7.13 5.4,14.22 7.95,21.35 26.08,72.88 42.03,145.51 42.03,217.84 z"
   id="path1617" />
			</g>
			<g
   id="g1623">
				<path
   class="st1"
   d="m 975.61,1659.08 c 2.17,-0.32 4.07,-0.55 6.09,-0.73 1.99,-0.17 3.98,-0.31 5.96,-0.39 1.99,-0.1 3.97,-0.13 5.95,-0.14 1.98,-0.02 3.96,0.01 5.94,0.08 7.92,0.23 15.83,1.06 23.7,2.32 15.74,2.57 31.34,7.1 46.31,13.85 14.94,6.75 29.28,15.79 41.83,27.33 12.55,11.5 23.26,25.51 30.8,41.05 l 0.42,0.87 c 4.42,9.1 0.63,20.06 -8.48,24.48 -4.01,1.95 -8.41,2.3 -12.43,1.3 l -1.69,-0.42 -1.88,-0.45 -3.83,-0.87 c -2.58,-0.56 -5.18,-1.1 -7.78,-1.63 -5.22,-1.04 -10.47,-1.98 -15.72,-2.85 -10.51,-1.72 -21.05,-3 -31.52,-3.74 -10.45,-0.65 -20.87,-0.84 -30.9,0.31 -10.02,1.16 -19.64,3.49 -27.98,8.58 l -0.33,0.2 c -3.07,1.87 -7.07,0.9 -8.94,-2.16 -1.42,-2.33 -1.19,-5.22 0.34,-7.29 3.91,-5.23 8.97,-9.55 14.36,-13.03 5.41,-3.5 11.19,-6.17 17.05,-8.34 5.87,-2.13 11.83,-3.78 17.81,-5.01 2.99,-0.63 5.98,-1.14 8.97,-1.62 2.99,-0.45 5.98,-0.79 8.97,-1.1 11.96,-1.21 23.85,-1.32 35.64,-0.76 5.9,0.27 11.78,0.75 17.64,1.41 2.94,0.32 5.87,0.69 8.81,1.12 l 4.43,0.67 2.25,0.38 2.42,0.45 -20.48,26.66 c -6.39,-11.09 -14.51,-21.04 -24.08,-29.85 -9.56,-8.82 -20.45,-16.58 -32.22,-23.52 -11.76,-6.97 -24.4,-13.09 -37.55,-18.72 -6.57,-2.83 -13.3,-5.47 -20.12,-8.09 l -5.14,-1.92 -5.18,-1.9 -10.32,-3.72 -0.43,-0.15 c -3.41,-1.23 -5.18,-4.99 -3.95,-8.4 0.89,-2.34 2.95,-3.91 5.26,-4.26 z"
   id="path1621"
   style="fill:#1a1a1a" />
			</g>
			<g
   id="g1627"
   style="fill:#1a1a1a">
				<path
   class="st1"
   d="m 1352.3,2459.47 c -102.07,0 -198.07,-6.99 -285.35,-20.79 -91.38,-14.44 -173.25,-36.37 -243.35,-65.18 -74.47,-30.6 -136.21,-69.23 -183.52,-114.81 -50.62,-48.77 -85.23,-105.97 -102.86,-170.01 -8.55,-31.08 -13.18,-64.22 -13.78,-98.51 -0.06,-0.82 -0.07,-1.64 -0.03,-2.46 -0.03,-1.85 -0.03,-3.62 -0.03,-5.35 0,-69.8 14.11,-143.17 43.15,-224.33 25.78,-72.04 62.28,-148.47 118.38,-247.8 90.13,-159.51 183.78,-287.48 278.34,-380.35 127.34,-125.07 258.24,-188.48 389.05,-188.48 130.81,0 261.71,63.41 389.05,188.48 94.56,92.87 188.21,220.84 278.34,380.35 50.08,88.63 85.12,160.45 110.25,226 2.52,6.42 5.02,13.16 8.12,21.81 29.04,81.16 43.15,154.54 43.15,224.33 0,37.08 -4.66,72.85 -13.84,106.31 -17.63,64.05 -52.24,121.25 -102.86,170.02 -47.31,45.58 -109.05,84.21 -183.52,114.81 -70.1,28.81 -151.97,50.74 -243.35,65.18 -87.27,13.79 -183.27,20.78 -285.34,20.78 z M 561.98,1988.68 c 0,0.04 0,0.09 0,0.13 0.5,31.32 4.67,61.48 12.42,89.65 59.92,217.64 343.46,342.46 777.89,342.46 434.43,0 717.97,-124.82 777.9,-342.47 8.27,-30.12 12.47,-62.45 12.47,-96.09 0,-65.29 -13.38,-134.42 -40.9,-211.34 -2.98,-8.31 -5.37,-14.73 -7.75,-20.81 -0.02,-0.04 -0.03,-0.09 -0.05,-0.13 -24.44,-63.74 -58.71,-133.93 -107.84,-220.89 -88.36,-156.37 -179.8,-281.46 -271.78,-371.81 -119.88,-117.74 -241.69,-177.43 -362.03,-177.43 -120.35,0 -242.16,59.7 -362.03,177.43 -91.99,90.34 -183.43,215.44 -271.78,371.81 -54.97,97.35 -90.64,171.93 -115.64,241.83 -27.52,76.91 -40.9,146.04 -40.9,211.34 0,1.89 0,3.67 0.04,5.41 -0.01,0.3 -0.01,0.61 -0.02,0.91 z m -0.25,2.69 c 0,0.02 -0.01,0.03 -0.01,0.05 0.01,-0.02 0.01,-0.04 0.01,-0.05 z"
   id="path1625"
   style="fill:#1a1a1a" />
			</g>
			<g
   id="g1631">
				
					<ellipse
   transform="matrix(0.996,-0.0893,0.0893,0.996,-144.9554,150.6375)"
   class="st1"
   cx="1611.83"
   cy="1696.1"
   rx="81.980003"
   ry="125.76"
   id="ellipse1629"
   style="fill:#1a1a1a" />
			</g>
			<g
   id="g1637">
				
					<ellipse
   transform="matrix(0.996,-0.0892,0.0892,0.996,-142.6956,149.423)"
   class="st2"
   cx="1599.53"
   cy="1670.36"
   rx="34.990002"
   ry="42.209999"
   id="ellipse1633" />
				<path
   class="st1"
   d="m 1600.68,1715.3 c -19.58,0 -36.67,-18 -38.78,-41.57 -1.06,-11.87 1.79,-23.4 8.02,-32.47 6.35,-9.23 15.44,-14.81 25.59,-15.72 20.75,-1.85 39.43,16.73 41.64,41.44 v 0 c 1.06,11.87 -1.79,23.4 -8.02,32.47 -6.35,9.23 -15.44,14.81 -25.59,15.72 -0.95,0.09 -1.91,0.13 -2.86,0.13 z m -2.3,-84.31 c -0.79,0 -1.58,0.04 -2.37,0.11 -8.47,0.76 -16.1,5.49 -21.5,13.33 -5.5,8 -8.01,18.23 -7.06,28.82 1.94,21.65 17.9,37.97 35.6,36.39 8.47,-0.76 16.1,-5.49 21.5,-13.33 5.5,-8 8.01,-18.23 7.06,-28.82 v 0 c -1.85,-20.68 -16.5,-36.5 -33.23,-36.5 z"
   id="path1635" />
			</g>
			<g
   id="g1643">
				
					<ellipse
   transform="matrix(0.996,-0.0893,0.0893,0.996,-150.3238,152.9834)"
   class="st2"
   cx="1635.37"
   cy="1757.28"
   rx="22"
   ry="18.950001"
   id="ellipse1639" />
				<path
   class="st1"
   d="m 1634.74,1779.05 c -5.6,0 -10.95,-1.65 -15.29,-4.76 -5.13,-3.67 -8.24,-8.92 -8.76,-14.79 -0.53,-5.86 1.6,-11.58 6,-16.11 4.28,-4.41 10.23,-7.17 16.74,-7.75 6.51,-0.59 12.86,1.07 17.86,4.65 5.13,3.67 8.24,8.92 8.76,14.79 v 0 c 0.53,5.86 -1.6,11.58 -6,16.11 -4.28,4.41 -10.23,7.17 -16.74,7.75 -0.86,0.07 -1.72,0.11 -2.57,0.11 z m 1.25,-37.96 c -0.69,0 -1.38,0.03 -2.07,0.09 -5.19,0.46 -9.89,2.62 -13.25,6.08 -3.25,3.34 -4.82,7.51 -4.45,11.74 0.38,4.22 2.67,8.04 6.46,10.76 3.92,2.81 8.93,4.1 14.12,3.63 5.19,-0.46 9.89,-2.62 13.25,-6.08 3.25,-3.34 4.82,-7.51 4.45,-11.74 v 0 c -0.38,-4.22 -2.67,-8.04 -6.46,-10.76 -3.39,-2.43 -7.61,-3.72 -12.05,-3.72 z"
   id="path1641" />
			</g>
			<g
   class="st0"
   id="g1647">
				<path
   class="st1"
   d="m 2147.25,1855.55 c -0.17,0.65 -0.32,1.31 -0.5,1.95 -68.87,250.12 -399.28,356.63 -796.48,356.63 -397.2,0 -727.61,-106.51 -796.48,-356.63 -0.18,-0.64 -0.33,-1.3 -0.5,-1.95 -8.12,38.56 -12.66,77.05 -12.66,115.46 0,1.98 0,3.9 0.05,5.88 -0.05,0.29 -0.05,0.58 0,0.87 0.53,33.49 5.01,65.01 13.11,94.46 68.87,250.12 399.28,356.63 796.48,356.63 397.2,0 727.61,-106.51 796.48,-356.63 8.63,-31.42 13.16,-65.16 13.16,-101.2 0,-38.41 -4.54,-76.9 -12.66,-115.47 z"
   id="path1645" />
			</g>
			<g
   id="g1653">
				<path
   class="st2"
   d="m 2029.77,2356.63 c -13.21,72.48 -72.68,108 -164.72,105.49 -47.52,-1.3 -84.92,-31.57 -104.29,-71.28 H 880.57 c -18.6,44.67 -65.16,71.42 -120.43,71.42 -82.51,0 -137.45,-76.96 -137.45,-159.47 0,-43.04 13.98,-70.31 38.99,-86.65 -28.92,-16.53 -50.46,-41.45 -56.34,-73.59 -13.2,-72.43 37.83,-154.7 116.87,-156.87 70.36,-1.93 121.64,18.41 147.81,60.43 8.1,12.96 13.78,28 16.92,45.06 1.4,7.71 2.17,15.23 2.51,22.6 h 878.75 c 4,-23.57 12.48,-45.83 24.77,-65.01 23.95,-37.54 62.41,-63.18 110.02,-63.18 22.51,0 43.57,4.43 61.88,12.67 48.87,22.02 78.22,71.28 63.33,136.72 -10.36,45.49 -23.28,76.29 -46.27,94.89 25.11,15.71 40.96,38.99 47.42,66.94 4.13,18.24 4.33,38.43 0.42,59.83 z"
   id="path1649" />
				<path
   class="st1"
   d="m 760.14,2464.77 c -39.43,0 -75.51,-17.66 -101.6,-49.72 -24.37,-29.95 -38.34,-70.86 -38.34,-112.25 0,-40.33 12.06,-68.68 36.83,-86.49 -29.99,-18.16 -48.68,-43.43 -54.14,-73.3 -7.2,-39.52 4.03,-82.27 30.06,-114.36 23.01,-28.37 54.69,-44.51 89.2,-45.46 71.8,-1.98 123.67,19.34 150,61.61 8.29,13.27 14.09,28.72 17.25,45.93 1.21,6.68 2.01,13.43 2.42,20.55 h 874.27 c 4.18,-23.03 12.72,-45.07 24.76,-63.86 26.08,-40.88 66.95,-64.33 112.13,-64.33 22.73,0 43.89,4.34 62.91,12.9 25.52,11.5 45.16,29.91 56.78,53.24 12.39,24.87 15.14,54.72 7.95,86.31 -10.91,47.92 -24.33,76.36 -44.51,94.07 23.43,15.64 39.19,38.61 45.66,66.64 4.26,18.7 4.41,39.16 0.46,60.82 v 0 c -6.64,36.44 -24.78,64.21 -53.92,82.54 -28.41,17.87 -66.54,26.29 -113.33,25.01 -44.59,-1.22 -84.02,-27.83 -105.77,-71.28 H 882.22 c -19.16,44.11 -65.77,71.43 -122.08,71.43 z m -28.99,-476.71 c -2.92,0 -5.88,0.04 -8.88,0.12 -33.03,0.91 -63.37,16.4 -85.45,43.61 -25.12,30.97 -35.97,72.2 -29.02,110.31 6.81,37.25 33.73,59.64 55.12,71.87 l 3.55,2.03 -3.42,2.23 c -25.47,16.64 -37.85,44.3 -37.85,84.56 0,77.16 50.48,156.97 134.95,156.97 54.91,0 100.18,-26.78 118.13,-69.88 l 0.64,-1.54 h 883.42 l 0.68,1.4 c 20.77,42.57 58.94,68.69 102.11,69.88 93.31,2.53 149.4,-33.23 162.2,-103.44 v 0 c 3.83,-20.99 3.69,-40.77 -0.41,-58.8 -6.43,-27.83 -22.45,-50.44 -46.31,-65.38 l -2.97,-1.86 2.72,-2.2 c 20.71,-16.76 34.29,-44.73 45.4,-93.5 13.49,-59.29 -10.23,-110.6 -61.91,-133.89 -18.1,-8.15 -39.15,-12.45 -60.85,-12.45 -43.43,0 -82.77,22.61 -107.92,62.03 -12.05,18.8 -20.49,40.96 -24.41,64.08 l -0.35,2.08 H 887.05 l -0.11,-2.39 c -0.36,-7.79 -1.16,-15.07 -2.47,-22.27 -3.04,-16.58 -8.62,-31.44 -16.58,-44.18 -24.24,-38.94 -71.42,-59.39 -136.74,-59.39 z"
   id="path1651" />
			</g>
			<g
   class="st0"
   id="g1657">
				<path
   class="st1"
   d="m 2031.8,2312.82 c -20.87,56.77 -76.72,84.53 -158.36,82.31 -47.52,-1.3 -84.87,-31.57 -104.29,-71.28 h -116.92 c 63.76,-23.18 115.37,-73.69 129.59,-142.46 6.31,-30.75 13.49,-62.51 14.99,-93.45 0.72,-15.04 -0.96,-26.51 -3.86,-39.18 -12.29,19.18 -20.77,41.45 -24.77,65.01 H 889.44 c -0.34,-7.37 -1.11,-14.89 -2.51,-22.6 -3.13,-17.06 -8.82,-32.1 -16.92,-45.06 -12.19,35.66 -15.66,77.98 -12.96,106.36 4.48,46.55 25.93,88.39 59.71,121.01 25.73,24.87 57.06,41.16 90.84,50.36 H 888.95 c -18.6,44.67 -65.16,71.42 -120.43,71.42 -75.33,0 -127.66,-64.19 -136.19,-138.12 -5.93,13.78 -9.06,30.6 -9.06,50.94 0,82.51 54.89,159.47 137.4,159.47 55.28,0 101.88,-26.75 120.43,-71.42 h 880.19 c 19.42,39.71 56.77,69.98 104.29,71.28 92.1,2.51 151.52,-33.06 164.72,-105.49 3.18,-17.29 3.62,-33.77 1.5,-49.1 z m -866.41,11.04 c 5.69,-1.35 11.28,-2.84 16.82,-4.43 75.9,-22.02 163.23,-38.75 243.47,-26.6 37.45,5.69 76.63,21.25 116.19,31.04 h -376.48 z"
   id="path1655" />
			</g>
			<g
   id="g1661"
   style="fill:#1a1a1a">
				<path
   class="st1"
   d="m 1874.11,2481.53 c -3.16,0 -6.35,-0.04 -9.58,-0.13 -26.35,-0.72 -51.73,-9.31 -73.39,-24.84 -16.7,-11.97 -31.01,-27.86 -41.89,-46.41 H 892.68 c -24.17,44.35 -73.73,71.38 -132.55,71.38 -44.58,0 -85.28,-19.85 -114.61,-55.89 -26.75,-32.88 -42.1,-77.65 -42.1,-122.83 0,-35.73 9.06,-64.13 26.99,-84.8 -23.61,-19.36 -38.97,-44.26 -44.03,-72 -8.08,-44.26 4.46,-92.09 33.52,-127.92 26.15,-32.24 62.29,-50.58 101.76,-51.66 50.16,-1.38 91.45,7.91 122.72,27.58 33.27,20.94 53.96,52.46 61.49,93.71 0.41,2.25 0.78,4.51 1.1,6.79 h 845.62 c 8.34,-32.7 24.63,-62.29 46.79,-84.56 28.41,-28.56 64.23,-43.65 103.59,-43.65 49.62,0 93.55,19.39 120.52,53.19 25.47,31.92 33.81,74.45 23.5,119.76 -9.25,40.62 -20.51,68.56 -36.12,88.46 34.05,31.03 47.77,78.04 37.85,132.4 -7.53,41.24 -28.21,72.77 -61.49,93.71 -29.24,18.4 -67.27,27.71 -113.12,27.71 z M 731.08,2004.85 c -2.82,0 -5.6,0.04 -8.36,0.12 -28.05,0.77 -53.93,14.05 -72.88,37.41 -21.75,26.81 -31.53,63.87 -25.54,96.72 5.64,30.91 28.64,49.87 46.95,60.33 5.83,3.33 9.51,9.46 9.7,16.18 0.2,6.71 -3.12,13.05 -8.75,16.71 -12.98,8.46 -30.24,24.96 -30.24,70.49 0,68.9 44.19,140.16 118.15,140.16 48.04,0 87.36,-22.8 102.63,-59.51 2.99,-7.19 10.01,-11.87 17.8,-11.87 h 880.2 c 7.36,0 14.08,4.2 17.32,10.81 18.01,36.85 50.72,59.45 87.5,60.46 58.5,1.59 131.17,-12.66 145.23,-89.67 8.72,-47.78 -5.18,-85.77 -39.12,-106.97 -5.29,-3.3 -8.65,-8.96 -9.03,-15.19 -0.38,-6.23 2.28,-12.25 7.13,-16.16 17.56,-14.18 29.41,-39.35 39.62,-84.18 7.77,-34.13 2.22,-64.27 -16.04,-87.16 -19.62,-24.58 -52.56,-38.68 -90.38,-38.68 -66.43,0 -106.58,58.14 -115.78,112.17 -1.58,9.26 -9.61,16.04 -19,16.04 H 889.44 c -10.29,0 -18.76,-8.08 -19.26,-18.36 -0.34,-7.13 -1.07,-13.69 -2.24,-20.07 -13.38,-73.37 -80,-89.78 -136.86,-89.78 z"
   id="path1659"
   style="fill:#1a1a1a" />
			</g>
			<g
   id="g1665">
				<path
   class="st2"
   d="m 848.66,1946.66 c 0,0 106.02,-25.35 118.07,14.81 12.05,40.16 -91.57,73.09 -59.04,163.86 32.53,90.76 135.1,156.05 213.25,141.37 55.16,-10.37 123.69,-48.19 219.28,-48.19 95.58,0 146.19,36.96 195.18,48.19 77.51,17.77 180.72,-50.6 213.25,-141.37 32.53,-90.76 -71.08,-123.69 -59.04,-163.86 12.05,-40.16 118.07,-14.81 118.07,-14.81 0,0 62.36,-62.29 -61.57,-62.29 -123.93,0 -220.94,180.72 -428.19,187.15 -158.93,4.93 -349.61,-264.97 -469.26,-124.86 z"
   id="path1663" />
			</g>
			<g
   id="g1679">
				<g
   class="st0"
   id="g1669">
					<path
   class="st1"
   d="m 1728.37,2024.09 c 19.66,24.29 36.14,54.75 20.29,98.99 -32.53,90.8 -135.76,159.13 -213.25,141.4 -49.01,-11.23 -99.61,-48.19 -195.18,-48.19 -95.61,0 -164.14,37.83 -219.28,48.19 -78.17,14.65 -180.72,-50.6 -213.25,-141.4 -16.19,-45.2 1.35,-76.05 21.59,-100.58 -3.86,13.01 -3.66,28 3.47,45.59 30.6,75.42 127.18,129.69 200.77,117.49 51.9,-8.63 116.43,-40.05 206.46,-40.05 89.98,0 137.59,30.7 183.76,40.05 72.96,14.79 170.12,-42.07 200.72,-117.49 6.84,-16.86 7.27,-31.32 3.9,-44 z"
   id="path1667" />
				</g>
				<g
   class="st0"
   id="g1673">
					<path
   class="st1"
   d="m 967.31,1970.12 c -2.84,16.19 -21.35,32.14 -38.02,52.39 6.26,-21.79 23.61,-38.18 38.02,-52.39 z"
   id="path1671" />
				</g>
				<g
   class="st0"
   id="g1677">
					<path
   class="st1"
   d="m 1728.37,2024.09 c -17.35,-21.45 -37.2,-38.02 -39.47,-54.99 14.94,14.8 33.49,31.91 39.47,54.99 z"
   id="path1675" />
				</g>
			</g>
			<g
   id="g1683">
				<path
   class="st1"
   d="m 949.55,1965.48 c -0.74,-0.27 -1.29,-0.5 -2.02,-0.85 -0.72,-0.33 -1.59,-0.82 -2.73,-1.34 -2.26,-1.06 -5.44,-2.3 -9.14,-3.37 -3.7,-1.07 -7.85,-2.07 -12.23,-2.96 -2.18,-0.46 -4.44,-0.89 -6.73,-1.28 -1.14,-0.2 -2.3,-0.37 -3.47,-0.54 -1.17,-0.18 -2.34,-0.37 -3.52,-0.53 -9.46,-1.3 -19.38,-2.2 -29.48,-3.01 -10.11,-0.83 -20.45,-1.48 -31.01,-2.52 l -0.07,-0.01 c -1.44,-0.14 -2.49,-1.42 -2.35,-2.87 0.08,-0.85 0.58,-1.58 1.26,-1.99 4.71,-2.83 9.5,-5.2 14.42,-7.4 4.9,-2.2 9.91,-4.13 14.99,-5.91 10.18,-3.5 20.68,-6.24 31.68,-7.93 11.01,-1.59 22.52,-2.57 35.08,-0.13 6.25,1.21 12.88,3.28 19.53,7.28 3.3,2.02 6.62,4.54 9.58,7.76 2.96,3.19 5.57,7.07 7.21,11.33 3.1,8.07 -0.92,17.12 -8.99,20.22 -3.69,1.42 -7.58,1.35 -11.02,0.08 z"
   id="path1681"
   style="fill:#1a1a1a" />
			</g>
			<g
   id="g1687">
				<path
   class="st1"
   d="m 1560.93,2288.76 c -10.28,0 -20.27,-1.08 -29.83,-3.27 -16.83,-3.86 -33.36,-10.32 -50.87,-17.16 -36.64,-14.32 -78.18,-30.54 -140,-30.54 -60.87,0 -110.14,16.09 -153.61,30.28 -21.91,7.16 -42.61,13.91 -62.11,17.58 -8.44,1.59 -17.21,2.37 -26.17,2.37 -36.07,0 -75.5,-12.65 -111.68,-36.32 -44.96,-29.42 -80.36,-73.1 -97.11,-119.85 -23.6,-65.85 13.86,-107.57 38.64,-135.19 9.67,-10.78 21.71,-24.19 20.08,-29.63 -3.06,-10.2 2.73,-20.94 12.92,-24 10.2,-3.06 20.94,2.73 24,12.92 7.85,26.18 -10.53,46.66 -28.31,66.47 -23.05,25.67 -46.88,52.22 -31.04,96.42 13.98,39.01 43.84,75.68 81.93,100.6 36.92,24.15 76.87,34.48 109.62,28.32 17.03,-3.2 35.67,-9.29 57.26,-16.34 43.92,-14.34 98.57,-32.19 165.58,-32.19 69.09,0 116.19,18.4 154.03,33.19 16.85,6.58 31.4,12.27 45.46,15.49 31.83,7.3 71.39,-2.64 108.54,-27.26 38.15,-25.28 68.13,-62.39 82.26,-101.82 15.84,-44.2 -7.99,-70.75 -31.04,-96.42 -17.78,-19.81 -36.17,-40.29 -28.31,-66.47 3.06,-10.2 13.81,-15.99 24,-12.92 10.2,3.06 15.98,13.81 12.92,24 -1.64,5.45 10.4,18.86 20.08,29.63 24.79,27.61 62.24,69.34 38.64,135.19 -16.88,47.08 -52.32,91.17 -97.26,120.95 -35.48,23.51 -73.68,35.97 -108.62,35.97 z"
   id="path1685"
   style="fill:#1a1a1a" />
			</g>
			<g
   id="g1691">
				<path
   class="st1"
   d="m 1807.11,1949.1 c -10.31,1.09 -20.4,1.77 -30.27,2.62 -9.87,0.82 -19.54,1.69 -28.81,2.93 l -6.85,1.01 c -2.25,0.36 -4.46,0.79 -6.62,1.2 -4.31,0.83 -8.44,1.73 -12.18,2.7 -3.73,0.98 -7.09,2.07 -9.63,3.09 -1.28,0.49 -2.34,0.99 -3.22,1.36 -0.9,0.38 -1.57,0.65 -2.36,0.85 l -10.8,2.72 c -8.48,2.13 -17.09,-3.02 -19.22,-11.5 -1,-4 -0.38,-8.05 1.44,-11.41 2.1,-3.87 4.97,-7.18 8,-9.88 3.04,-2.71 6.29,-4.79 9.49,-6.48 6.45,-3.34 12.76,-5.04 18.79,-6.03 12.08,-1.98 23.26,-0.93 33.95,0.76 10.68,1.76 20.91,4.51 30.81,8 4.95,1.76 9.82,3.69 14.59,5.87 4.78,2.18 9.45,4.53 14.04,7.33 1.24,0.76 1.63,2.38 0.87,3.61 -0.44,0.72 -1.17,1.15 -1.95,1.24 z"
   id="path1689"
   style="fill:#1a1a1a" />
			</g>
			<g
   id="g1695">
				<path
   class="st1"
   d="m 1502.96,1989.59 c -17.32,78.16 -73.47,135.74 -175.5,135.74 -102.03,0 -155.82,-45.38 -173.9,-129.72 -15.58,-72.71 71.87,-111.24 173.9,-111.24 102.02,0 190.36,38.15 175.5,105.22 z"
   id="path1693"
   style="fill:#1a1a1a" />
			</g>
			<g
   class="st0"
   id="g1699">
				<path
   class="st1"
   d="m 2029.34,2296.82 c -53.64,-72.14 -133.74,-72.92 -133.74,-72.92 106.07,-45.2 86.31,-164.72 69.25,-225.64 48.87,22.02 78.22,71.28 63.33,136.72 -10.36,45.49 -23.28,76.29 -46.27,94.89 25.12,15.72 40.97,39 47.43,66.95 z"
   id="path1697" />
			</g>
			<g
   class="st0"
   id="g1703">
				<path
   class="st1"
   d="m 631.23,2280.31 c 40.2,-67.83 118.91,-79.48 118.91,-79.48 -112.31,-23.3 -113.74,-126.18 -107.59,-179.57 -44.26,25.17 -64.54,70.48 -38.45,123.28 18.15,36.7 36.24,60.73 62.12,73.16 -21.98,16.62 -33.52,38.3 -34.99,62.61 z"
   id="path1701" />
			</g>
			<g
   class="st8"
   id="g1707">
				<path
   class="st2"
   d="m 1405,1947.24 c 0,10.3 -59.69,23.44 -76.83,23.44 -17.69,0 -76.83,-13.14 -76.83,-23.44 0,-10.3 19.44,-18.65 76.83,-18.65 55.81,0 76.83,8.35 76.83,18.65 z"
   id="path1705" />
			</g>
		</g>
		<g
   id="g1743"
   transform="translate(180.34805,519.0505)">
			<g
   id="g1713">
				<path
   class="st2"
   d="m 2263.39,1356.26 c -58.83,100.49 -120.16,212.83 -204.82,168.69 -66.92,-34.89 -85.74,-144.21 -47.97,-254.36 37.77,-110.15 126.76,-181.02 197.64,-155.13 98.52,35.98 112.98,142.01 55.15,240.8 z"
   id="path1711" />
			</g>
			<g
   class="st5"
   id="g1717">
				<path
   class="st2"
   d="m 2019.27,1311.49 c 37.77,-110.15 126.76,-181.02 197.65,-155.13 40.63,14.84 66.93,41.61 79.79,74.86 -6.15,-47.92 -34.78,-87.6 -87.82,-106.97 -70.89,-25.89 -159.88,44.98 -197.64,155.13 -23.04,67.21 -24.98,134.07 -7.82,183.94 -7.49,-44.75 -2.56,-98.18 15.84,-151.83 z"
   id="path1715" />
			</g>
			<g
   class="st0"
   id="g1721">
				<path
   class="st1"
   d="m 2279.44,1278.37 c -58.83,100.49 -120.16,212.83 -204.82,168.69 -48.39,-25.23 -71.61,-89.4 -66.49,-164.65 -34.4,107.58 -14.98,212.77 50.42,246.87 84.66,44.14 145.99,-68.19 204.82,-168.69 23.41,-40 34.97,-81.18 33.9,-118.41 -4.86,12.07 -10.8,24.18 -17.83,36.19 z"
   id="path1719" />
			</g>
			<g
   id="g1725">
				<path
   class="st1"
   d="m 2095.92,1552.34 c -15.09,0 -30.25,-3.95 -45.44,-11.87 -37.03,-19.31 -62.73,-58.84 -72.36,-111.32 -9.08,-49.46 -3.43,-107.79 15.93,-164.24 25.16,-73.38 72.68,-132.69 127.11,-158.66 32.02,-15.28 64.21,-17.78 93.09,-7.23 44.9,16.4 76.48,46.89 91.35,88.19 18.64,51.78 8.76,116.62 -27.1,177.89 v 0 c -2.17,3.71 -4.35,7.44 -6.53,11.17 -28.88,49.47 -58.74,100.62 -92.58,134.72 -27.34,27.54 -55.28,41.35 -83.47,41.35 z m 81.79,-424.69 c -13.27,0 -27.28,3.41 -41.49,10.19 -45.44,21.68 -87.23,74.72 -109.08,138.42 -35.25,102.8 -18.26,203.04 39.51,233.17 29.6,15.43 56.71,8.31 87.88,-23.09 30.7,-30.93 59.42,-80.13 87.2,-127.71 2.19,-3.75 4.37,-7.49 6.55,-11.21 30.61,-52.29 39.49,-106.36 24.38,-148.35 -11.24,-31.22 -35.59,-54.45 -70.43,-67.17 -7.76,-2.84 -15.99,-4.25 -24.52,-4.25 z m 85.68,228.61 h 0.01 z"
   id="path1723"
   style="fill:#1a1a1a" />
			</g>
			<g
   id="g1729">
				
					<ellipse
   transform="matrix(0.3681,-0.9298,0.9298,0.3681,113.188,2828.4658)"
   class="st1"
   cx="2137.48"
   cy="1330.96"
   rx="73.489998"
   ry="53.150002"
   id="ellipse1727"
   style="fill:#1a1a1a" />
			</g>
			<g
   id="g1733">
				<circle
   class="st1"
   cx="2144.3701"
   cy="1196.02"
   r="25.299999"
   id="circle1731"
   style="fill:#1a1a1a" />
			</g>
			<g
   id="g1737">
				
					<circle
   transform="matrix(0.9239,-0.3827,0.3827,0.9239,-287.3829,936.1024)"
   class="st1"
   cx="2209.3601"
   cy="1190.4399"
   id="ellipse1735"
   style="fill:#1a1a1a"
   r="25.299999" />
			</g>
			<g
   id="g1741">
				<circle
   class="st1"
   cx="2234.6599"
   cy="1246.62"
   r="25.299999"
   id="circle1739"
   style="fill:#1a1a1a" />
			</g>
		</g>
		<g
   id="g1777"
   transform="translate(180.34805,519.0505)">
			<g
   id="g1747">
				<path
   class="st2"
   d="m 435.7,1356.26 c 58.83,100.49 120.16,212.83 204.82,168.69 66.92,-34.89 85.74,-144.21 47.97,-254.36 -37.77,-110.15 -126.76,-181.02 -197.64,-155.13 -98.52,35.98 -112.98,142.01 -55.15,240.8 z"
   id="path1745" />
			</g>
			<g
   class="st5"
   id="g1751">
				<path
   class="st2"
   d="M 679.82,1313.42 C 642.05,1203.27 553.06,1132.4 482.18,1158.29 c -40.63,14.84 -66.93,41.61 -79.79,74.86 6.15,-47.92 34.78,-87.6 87.82,-106.97 70.89,-25.89 159.88,44.98 197.64,155.13 23.04,67.21 24.98,134.07 7.82,183.94 7.48,-44.75 2.55,-98.18 -15.85,-151.83 z"
   id="path1749" />
			</g>
			<g
   class="st0"
   id="g1755">
				<path
   class="st1"
   d="m 419.65,1280.3 c 58.83,100.49 120.16,212.83 204.82,168.69 48.39,-25.23 71.61,-89.4 66.49,-164.65 34.4,107.58 14.98,212.77 -50.42,246.87 -84.66,44.14 -145.99,-68.19 -204.82,-168.69 -23.41,-40 -34.97,-81.18 -33.9,-118.42 4.86,12.08 10.8,24.19 17.83,36.2 z"
   id="path1753" />
			</g>
			<g
   id="g1759">
				<path
   class="st1"
   d="m 603.17,1552.34 c -28.2,0 -56.13,-13.81 -83.46,-41.34 -33.84,-34.09 -63.7,-85.25 -92.58,-134.72 -2.18,-3.74 -4.36,-7.46 -6.53,-11.17 -35.86,-61.27 -45.74,-126.11 -27.1,-177.89 14.87,-41.3 46.45,-71.8 91.35,-88.19 28.88,-10.55 61.07,-8.05 93.09,7.23 54.44,25.97 101.95,85.28 127.11,158.66 19.36,56.45 25.01,114.78 15.93,164.24 -9.64,52.48 -35.34,92.01 -72.36,111.32 -15.19,7.91 -30.36,11.86 -45.45,11.86 z M 450.81,1347.42 c 2.18,3.72 4.36,7.46 6.55,11.21 27.77,47.58 56.49,96.78 87.2,127.71 31.17,31.41 58.28,38.53 87.88,23.09 57.77,-30.12 74.76,-130.36 39.51,-233.17 -21.84,-63.7 -63.64,-116.74 -109.08,-138.42 -23.34,-11.14 -46.17,-13.19 -66.01,-5.94 -34.83,12.72 -59.19,35.95 -70.43,67.17 -15.12,41.99 -6.23,96.06 24.38,148.35 z"
   id="path1757"
   style="fill:#1a1a1a" />
			</g>
			<g
   id="g1763">
				
					<ellipse
   transform="matrix(0.9298,-0.3681,0.3681,0.9298,-450.4821,300.1679)"
   class="st1"
   cx="561.60999"
   cy="1330.96"
   rx="53.150002"
   ry="73.489998"
   id="ellipse1761"
   style="fill:#1a1a1a" />
			</g>
			<g
   id="g1767">
				<circle
   class="st1"
   cx="554.72998"
   cy="1196.02"
   r="25.299999"
   id="circle1765"
   style="fill:#1a1a1a" />
			</g>
			<g
   id="g1771">
				
					<circle
   transform="matrix(0.3827,-0.9239,0.9239,0.3827,-797.4997,1187.3298)"
   class="st1"
   cx="489.73001"
   cy="1190.4399"
   id="ellipse1769"
   style="fill:#1a1a1a"
   r="25.299999" />
			</g>
			<g
   id="g1775">
				<circle
   class="st1"
   cx="464.42999"
   cy="1246.62"
   r="25.299999"
   id="circle1773"
   style="fill:#1a1a1a" />
			</g>
		</g>
		<g
   id="g1795"
   transform="translate(180.34805,519.0505)">
			<g
   id="g1783">
				<path
   class="st2"
   d="m 2041.68,1110.46 c -94.55,0 -47.47,-89.88 -45.69,-93.35 -2.36,2.65 -54.84,60.05 -119.04,17.25 -65.69,-43.81 -42.51,-126.31 -42.51,-126.31 0,0 -41.64,63.42 -72.29,27.71 -30.84,-35.95 -12.29,-92.53 31.52,-134.89 55.37,-53.59 151.08,-84.48 237.98,-22.12 56.43,40.53 83.37,115.57 86.22,184 3.28,78.12 -24.82,147.71 -76.19,147.71 z"
   id="path1779" />
				<path
   class="st1"
   d="m 2041.68,1112.96 c -27.53,0 -46.1,-7.56 -55.18,-22.46 -11.96,-19.62 -4.35,-46.95 1.99,-62.86 -12,10.07 -34.6,25.05 -62.88,25.05 -15.28,0 -32.22,-4.37 -50.04,-16.25 -34.75,-23.18 -44.73,-57.08 -46.99,-81.43 -1.37,-14.79 -0.17,-27.77 1.17,-36.43 -9.16,11.37 -26.4,29.36 -44.52,30.52 -9.38,0.6 -17.78,-3.34 -24.97,-11.72 -29.73,-34.65 -16.7,-91.53 31.68,-138.32 57.72,-55.86 154.67,-84.43 241.17,-22.35 27.04,19.42 48.59,47.2 64.04,82.57 13.68,31.32 21.71,67.06 23.22,103.36 2.36,56.21 -11.01,105.18 -35.76,130.99 -12.3,12.83 -26.74,19.33 -42.93,19.33 z m -34.48,-112.19 -9.04,17.58 c -2.34,4.53 -22.38,44.95 -7.39,69.55 8.11,13.31 25.24,20.06 50.91,20.06 14.77,0 28.01,-5.98 39.32,-17.79 23.47,-24.47 36.64,-73.26 34.37,-127.32 -3.24,-78.03 -35.08,-146.1 -85.18,-182.07 -84.15,-60.4 -178.55,-32.53 -234.78,21.89 -46.39,44.86 -59.28,98.92 -31.36,131.47 6.11,7.12 13.12,10.48 20.85,9.98 23.57,-1.51 47.21,-37.08 47.45,-37.44 l 8.83,-13.44 -4.33,15.48 c -0.06,0.2 -5.66,20.62 -3.28,45.99 3.17,33.77 18.23,59.87 44.77,77.57 62.51,41.67 113.64,-14.43 115.78,-16.84 z"
   id="path1781" />
			</g>
			<g
   id="g1787">
				<path
   class="st1"
   d="m 2041.7,1129.76 c -34.08,0 -57.57,-10.44 -69.81,-31.02 -6.83,-11.48 -8.87,-24.33 -8.39,-36.68 -24.12,9.5 -59.02,13.86 -97.24,-11.64 -31.67,-21.13 -50.44,-53.31 -54.3,-93.12 -8.61,5.16 -17.19,8.03 -25.64,8.57 -10.26,0.66 -25.31,-1.85 -38.77,-17.54 -17.77,-20.71 -23.84,-47.32 -17.58,-76.96 5.41,-25.59 19.69,-51.56 41.29,-75.12 31.48,-34.33 75.03,-59.01 119.5,-67.72 53.45,-10.47 106.06,1.48 152.14,34.55 40.96,29.4 71.4,78.25 85.7,137.57 12.48,51.74 11.58,108.55 -2.39,151.98 -15.76,49.02 -46.56,77.13 -84.51,77.13 z m -45.61,-132.08 c 3.82,0 7.67,1.13 11.02,3.46 8.07,5.61 10.59,16.42 5.91,25.06 -6.09,11.36 -16.09,39.29 -7.97,52.86 6,10.03 23.25,12.14 36.66,12.14 27.51,0 41.77,-31.56 47.82,-50.37 24.33,-75.64 1.94,-195.44 -69.09,-246.42 -80.88,-58.04 -171.12,-26.22 -220.75,27.9 -28.14,30.69 -46.13,73.8 -22.86,100.92 3.75,4.37 5.96,4.23 7.03,4.17 10.01,-0.62 26.49,-17.79 34.54,-29.94 5.24,-7.91 15.48,-10.85 24.11,-6.89 8.63,3.95 13.11,13.59 10.54,22.73 -0.03,0.11 -4.94,18.45 -2.64,40.89 2.87,28 15.41,49.59 37.26,64.17 21.27,14.19 42.35,16.38 64.44,6.71 17.81,-7.8 29.4,-20.67 29.52,-20.8 3.76,-4.34 9.08,-6.59 14.46,-6.59 z"
   id="path1785"
   style="fill:#1a1a1a" />
			</g>
			<g
   class="st0"
   id="g1793">
				<path
   class="st9"
   d="m 2041.68,1110.46 c -94.55,0 -47.47,-89.88 -45.69,-93.35 -2.36,2.65 -54.84,60.05 -119.04,17.25 -65.69,-43.81 -42.51,-126.31 -42.51,-126.31 0,0 -41.64,63.42 -72.29,27.71 -30.84,-35.95 -12.29,-92.53 31.52,-134.89 8.43,23.61 27.57,49.16 70.6,52 0,0 9.16,153.16 161.2,114.6 0,0 52.19,138.65 92.39,-4.72 3.29,78.12 -24.81,147.71 -76.18,147.71 z"
   id="path1789" />
				<path
   class="st1"
   d="m 2041.68,1112.96 c -27.53,0 -46.1,-7.56 -55.18,-22.46 -11.96,-19.62 -4.35,-46.95 1.99,-62.86 -12,10.07 -34.6,25.05 -62.88,25.05 -15.28,0 -32.22,-4.37 -50.04,-16.25 -34.75,-23.18 -44.73,-57.08 -46.99,-81.43 -1.37,-14.79 -0.17,-27.77 1.17,-36.43 -9.16,11.37 -26.4,29.36 -44.52,30.52 -9.38,0.6 -17.78,-3.34 -24.97,-11.72 -29.73,-34.65 -16.7,-91.53 31.68,-138.32 l 2.79,-2.7 1.3,3.65 c 7.65,21.41 25.72,47.53 68.41,50.35 l 2.2,0.15 0.13,2.2 c 0.04,0.66 4.51,66.34 49.79,99.42 27.22,19.89 63.66,24.23 108.31,12.91 l 2.17,-0.55 0.79,2.09 c 0.22,0.6 22.82,59.71 47.99,58.61 14.54,-0.63 28.25,-22.46 39.65,-63.13 l 4.25,-15.15 0.66,15.71 c 2.36,56.21 -11.01,105.18 -35.76,130.99 -12.31,12.85 -26.75,19.35 -42.94,19.35 z m -34.48,-112.19 -9.04,17.58 c -2.34,4.53 -22.38,44.95 -7.39,69.55 8.11,13.31 25.24,20.06 50.91,20.06 14.77,0 28.01,-5.98 39.32,-17.79 21.14,-22.05 33.93,-63.82 34.59,-111.41 -11.32,33.91 -24.32,50.78 -39.57,51.44 -0.29,0.01 -0.59,0.02 -0.88,0.02 -25.76,0 -46.8,-48.84 -51.19,-59.79 -45.21,11.03 -82.33,6.23 -110.37,-14.27 -24.7,-18.06 -37.47,-45.15 -43.83,-64.7 -5.51,-16.94 -7.28,-31 -7.79,-36.25 -41.52,-3.52 -60.55,-28.19 -69.26,-49.86 -44.17,44.31 -56.02,96.89 -28.64,128.79 6.11,7.12 13.12,10.48 20.85,9.98 23.57,-1.51 47.21,-37.08 47.45,-37.44 l 8.83,-13.44 -4.33,15.48 c -0.06,0.2 -5.66,20.62 -3.28,45.99 3.17,33.77 18.23,59.87 44.77,77.57 62.51,41.67 113.64,-14.43 115.78,-16.84 z"
   id="path1791" />
			</g>
		</g>
		<g
   id="g1813"
   transform="translate(180.34805,519.0505)">
			<g
   id="g1801">
				<path
   class="st2"
   d="m 676.17,778.75 c -120.88,86.75 -106.42,331.73 -10.04,331.73 96.38,0 45.63,-93.48 45.63,-93.48 0,0 53.43,61.19 119.11,17.38 65.68,-43.82 42.49,-126.31 42.49,-126.31 0,0 41.65,63.42 72.29,27.71 69.94,-81.53 -113.93,-268.66 -269.48,-157.03 z"
   id="path1797" />
				<path
   class="st1"
   d="m 666.13,1112.98 c -15.78,0 -29.92,-6.19 -42.03,-18.4 -11.17,-11.27 -20.09,-27.11 -26.52,-47.07 -13.07,-40.62 -13.83,-94.04 -2.05,-142.91 13.36,-55.41 41.48,-100.82 79.18,-127.87 42.23,-30.3 90.34,-41.27 139.14,-31.72 41.03,8.03 81.25,30.85 110.36,62.59 19.29,21.04 32.52,44.92 37.24,67.25 5.14,24.33 0.34,45.97 -13.9,62.56 -7.19,8.38 -15.58,12.32 -24.96,11.72 -18.12,-1.16 -35.37,-19.15 -44.53,-30.52 1.35,8.66 2.55,21.63 1.18,36.42 -2.25,24.36 -12.23,58.25 -46.98,81.43 -34.89,23.27 -66.35,17.16 -86.61,7.94 -11.14,-5.07 -20.08,-11.51 -26.24,-16.68 6.16,15.44 13.88,42.67 2.12,62.45 -9.01,15.13 -27.65,22.81 -55.4,22.81 z m 10.04,-334.23 1.46,2.03 c -78.04,56.01 -101.93,182.34 -75.28,265.19 12.86,39.99 35.52,62.01 63.79,62.01 25.86,0 43.04,-6.85 51.09,-20.37 15.51,-26.05 -7.42,-68.99 -7.66,-69.42 l -10.68,-19.7 14.76,16.86 c 0.13,0.15 13.36,15.1 34.24,24.56 27.73,12.57 55.19,10 81.61,-7.62 26.54,-17.7 41.59,-43.8 44.76,-77.57 2.38,-25.37 -3.23,-45.78 -3.29,-45.98 l -4.34,-15.48 8.83,13.44 c 0.24,0.36 23.89,35.94 47.46,37.44 7.72,0.49 14.73,-2.87 20.84,-9.98 25.94,-30.24 16.6,-79.74 -23.23,-123.18 -54.47,-59.4 -153.71,-94.19 -242.9,-30.19 z"
   id="path1799" />
			</g>
			<g
   id="g1805">
				<path
   class="st1"
   d="m 666.13,1129.76 c -37.95,0 -68.75,-28.11 -84.52,-77.12 -13.97,-43.43 -14.86,-100.24 -2.39,-151.98 14.3,-59.32 44.74,-108.17 85.7,-137.57 46.08,-33.07 98.69,-45.02 152.14,-34.55 44.47,8.71 88.03,33.39 119.5,67.72 21.6,23.56 35.88,49.53 41.29,75.12 6.27,29.64 0.19,56.25 -17.58,76.96 -13.46,15.69 -28.51,18.19 -38.77,17.54 -8.45,-0.54 -17.03,-3.41 -25.64,-8.57 -3.87,39.81 -22.63,71.99 -54.3,93.12 -38.22,25.5 -73.12,21.14 -97.24,11.64 0.49,12.36 -1.55,25.2 -8.39,36.68 -12.23,20.57 -35.72,31.01 -69.8,31.01 z m 10.04,-351.01 11.24,15.66 c -71.03,50.98 -93.42,170.78 -69.09,246.42 6.05,18.81 20.31,50.37 47.82,50.37 13.41,0 30.65,-2.11 36.66,-12.14 8.12,-13.58 -1.87,-41.5 -7.99,-52.9 -4.64,-8.64 -2.06,-19.41 6.01,-24.99 8.07,-5.58 19.02,-4.23 25.47,3.15 0.05,0.06 11.64,12.92 29.45,20.73 22.09,9.67 43.17,7.48 64.44,-6.71 21.85,-14.58 34.39,-36.17 37.26,-64.17 2.3,-22.43 -2.61,-40.77 -2.66,-40.96 -2.57,-9.15 1.92,-18.78 10.57,-22.72 8.65,-3.94 18.9,-0.95 24.12,6.99 8.03,12.12 24.51,29.29 34.52,29.91 1.06,0.07 3.28,0.2 7.03,-4.17 C 954.28,896.1 936.3,852.99 908.16,822.3 858.53,768.18 768.29,736.37 687.41,794.4 Z"
   id="path1803"
   style="fill:#1a1a1a" />
			</g>
			<g
   class="st0"
   id="g1811">
				<path
   class="st9"
   d="m 666.13,1115.47 c 94.55,0 47.47,-89.88 45.69,-93.35 2.36,2.65 54.84,60.05 119.04,17.25 65.69,-43.81 42.51,-126.31 42.51,-126.31 0,0 41.64,63.42 72.29,27.71 30.84,-35.95 12.29,-92.53 -31.52,-134.89 -8.43,23.61 -27.57,49.16 -70.6,52 0,0 -9.16,153.16 -161.2,114.6 0,0 -52.19,138.65 -92.39,-4.72 -3.29,78.12 24.81,147.71 76.18,147.71 z"
   id="path1807" />
				<path
   class="st1"
   d="m 666.13,1117.97 c -16.19,0 -30.63,-6.5 -42.93,-19.33 -24.75,-25.81 -38.12,-74.78 -35.76,-130.99 l 0.66,-15.71 4.25,15.15 c 11.4,40.67 25.11,62.5 39.65,63.13 25.19,1.08 47.76,-58.02 47.99,-58.61 l 0.79,-2.09 2.17,0.55 c 44.66,11.32 81.11,6.97 108.33,-12.93 45.3,-33.12 49.72,-98.74 49.76,-99.4 l 0.13,-2.2 2.2,-0.15 c 42.69,-2.82 60.77,-28.94 68.41,-50.35 l 1.3,-3.65 2.79,2.7 c 48.38,46.79 61.41,103.66 31.68,138.32 -7.19,8.38 -15.59,12.31 -24.97,11.72 -18.12,-1.16 -35.36,-19.15 -44.52,-30.52 1.35,8.66 2.54,21.63 1.17,36.43 -2.25,24.36 -12.24,58.26 -46.99,81.43 -17.82,11.88 -34.76,16.25 -50.04,16.25 -28.28,0 -50.87,-14.97 -62.88,-25.05 6.34,15.91 13.95,43.23 1.99,62.86 -9.08,14.89 -27.65,22.44 -55.18,22.44 z m -73.92,-134.2 c 0.67,47.59 13.45,89.37 34.59,111.41 11.32,11.8 24.55,17.79 39.32,17.79 25.67,0 42.8,-6.75 50.91,-20.06 14.99,-24.6 -5.06,-65.02 -7.39,-69.55 l -9.04,-17.58 13.08,14.68 c 2.15,2.41 53.28,58.51 115.78,16.84 26.54,-17.7 41.6,-43.8 44.77,-77.57 2.38,-25.37 -3.23,-45.78 -3.28,-45.99 l -4.33,-15.48 8.83,13.44 c 0.24,0.36 23.88,35.93 47.45,37.44 7.73,0.5 14.74,-2.87 20.85,-9.99 27.37,-31.9 15.53,-84.48 -28.64,-128.79 -8.72,21.67 -27.75,46.34 -69.26,49.86 -0.51,5.25 -2.27,19.31 -7.79,36.25 -6.36,19.55 -19.13,46.64 -43.83,64.7 -28.04,20.5 -65.16,25.3 -110.37,14.27 -4.39,10.95 -25.43,59.79 -51.19,59.79 -0.29,0 -0.59,-0.01 -0.88,-0.02 -15.25,-0.66 -28.26,-17.53 -39.58,-51.44 z"
   id="path1809"
   style="fill:#1a1a1a" />
			</g>
		</g>
	</g>
</g>
</svg>
