<?xml version="1.0" encoding="UTF-8" standalone="no"?>
<!-- Generator: Adobe Illustrator 15.0.2, SVG Export Plug-In . SVG Version: 6.00 Build 0)  -->

<svg
   version="1.1"
   id="layer_1"
   x="0px"
   y="0px"
   width="291"
   height="453"
   viewBox="0 0 291 453"
   enable-background="new 0 0 1159 771"
   xml:space="preserve"
   sodipodi:docname="clock.svg"
   inkscape:version="1.2.2 (732a01da63, 2022-12-09)"
   xmlns:inkscape="http://www.inkscape.org/namespaces/inkscape"
   xmlns:sodipodi="http://sodipodi.sourceforge.net/DTD/sodipodi-0.dtd"
   xmlns="http://www.w3.org/2000/svg"
   xmlns:svg="http://www.w3.org/2000/svg"><defs
   id="defs1232" /><sodipodi:namedview
   id="namedview1230"
   pagecolor="#ffffff"
   bordercolor="#000000"
   borderopacity="0.25"
   inkscape:showpageshadow="2"
   inkscape:pageopacity="0.0"
   inkscape:pagecheckerboard="0"
   inkscape:deskcolor="#d1d1d1"
   showgrid="false"
   inkscape:zoom="1.0440035"
   inkscape:cx="397.50826"
   inkscape:cy="289.27107"
   inkscape:window-width="1920"
   inkscape:window-height="1009"
   inkscape:window-x="3832"
   inkscape:window-y="-8"
   inkscape:window-maximized="1"
   inkscape:current-layer="g1215" />

<g
   id="g1227">
	
	
	
	<g
   id="g1219">
		<path
   fill="#f97a59"
   d="m 278.77451,221.76267 c -3.6,-13.1 -9.5,-26.9 -5.4,-40.6 1.2,-4.1 -0.2,-4.4 -3.4,-2.8 -10.5,5.4 -14.8,15.7 -16.9,26.4 -1,4.8 -2.6,10.5 -6.3,13.7 -4.9,4.3 -10.7,0.2 -14.2,-4 -7.9,-9.7 -8.7,-23.8 -7.8,-36 1.1,-16 4.7,-31.8 1.8,-47.8 -3,-16.1 -12.1,-30.1 -21.1,-43.200004 -2.6,-3.9 -5.8,-2.4 -3.9,2.8 4.7,13.100004 3.4,30.700004 -7.1,41.700004 -4,4.2 -9.6,6.9 -15.4,5.8 -5.6,-1.1 -10.1,-5.4 -13.2,-10.2 -8.1,-12.7 -7.1,-28.600004 -9.4,-43.000004 -2.2,-14 -8.4,-26.4 -16.8,-37.5 -9.3,-12.1 -22.3,-20.8 -33.8,-30.5 -3.5,-3 -7.200004,-0.9 -4.1,3.7 7.3,10.7 10.9,23.8 12.4,36.9 1.4,12.6 0.4,26.9 -5.9,38 -5.5,9.700004 -18.000004,17.600004 -28.400004,11.000004 -5.2,-3.3 -9,-9.400004 -12.2,-14.700004 -3.1,-5.1 -6.6,-11.8 -3.4,-17.6 2.3,-4.4 -0.3,-7.3 -3.7,-3.2 -7.9,9.5 -15.7,19.2 -15.9,31.800004 -0.2,13.1 5.1,24.9 11.2,36 5.7,10.5 12.2,21.1 13.2,33.4 0.9,11.4 -3.2,22.1 -14.4,25.6 -5.5,1.7 -13.7,2.7 -16.2,-4.1 -1.8,-4.8 4.6,-15.2 7.2,-19.6 2.7,-4.5 -1.6,-4.8 -5.1,-1.3 -3.8,3.8 -28.7,41.6 -29.6,59.6 -5.7999997,109.2 108.100004,101.7 156.000004,101.2 45,-0.5 96.7,-23.2 112.1,-71.2 4.1,-13.4 3.4,-26.8 -0.3,-40.3 z"
   id="path1169" />
		<path
   fill="#ffc577"
   d="m 257.17451,223.56267 c -1.1,-1.9 -4.3,-1.6 -4.9,0.6 -2.4,10 -9.8,18.3 -19.5,21.8 -5.4,1.9 -11.7,2.5 -17.1,0.4 -5.6,-2.3 -9.6,-7.6 -12.5,-12.8 -12.6,-22.3 -6.1,-49.1 0,-72.4 0.8,-3 -3.3,-4.6 -4.9,-2.1 -4,6.5 -8.5,13.8 -15.8,16.9 -8,3.4 -17.2,0.2 -23.4,-5.4 -11.8,-10.9 -15.9,-29.4 -15.8,-45.3 0.1,-1.5 0.1,-3 0.1,-4.4 0,-3.5 -5.2,-3.4 -5.3,0 -0.1,1.2 -0.1,2.5 -0.1,3.8 -0.3,5.1 -1.3,10.3 -3.4,15 -2.6,5.8 -10,7.7 -15.7,9.4 -5.8,1.7 -12.4,2.7 -18.2,-0.1 -4.700004,-2.3 -8.400004,-6.5 -8.400004,-11.9 0,-3 -4.4,-3.6 -5.2,-0.7 -3.8,12.5 -2.9,25.5 -0.9,38.2 2,12.8 6.1,26.1 5.3,39.1 -0.8,12.6 -10.2,20 -22.1,21.8 -11.4,1.7 -28.7,-2 -29.4,-16.3 -0.1,-2.5 -3.7,-3.9 -5,-1.3 -8.7,17.6 -8.6,38.3 0.3,55.8 0.3,0.6 0.7,1 1.2,1.2 9.9,14.7 30.9,15.2 46.4,19.5 21.100004,5.9 41.600004,14.4 63.500004,17.5 34.5,4.9 72,-5.7 96.3,-31.2 14.5,-14.7 26,-37.3 14.5,-57.1 z"
   id="path1171" />
		<g
   id="g1217">
			<g
   id="g1215">
				<circle
   fill="#F8D2C7"
   cx="146.1745"
   cy="323.36264"
   r="128.5"
   id="circle1173"
   style="fill:#808080" />
				<circle
   fill="#ffffff"
   cx="146.1745"
   cy="323.36264"
   r="114"
   id="circle1175" />
				<path
   fill="#FFEBDE"
   d="m 249.77451,275.96267 c -15.2,8.4 -89.7,42.9 -102.2,49.5 3.9,8.9 10.3,16.7 15.1,25.1 5.2,9 10.8,17.8 16,26.8 5,8.8 10,17.6 15,26.4 3.4,6 6.6,12 10,18 33.8,-19.8 56.4,-56.4 56.4,-98.4 0,-16.9 -3.7,-33 -10.3,-47.4 z"
   id="path1177"
   style="fill:#e6e6e6" />
				<g
   id="g1203"
   style="fill:#cccccc"
   transform="translate(-641.12549,-198.23733)">
					<rect
   x="784.90002"
   y="416"
   fill="#F8D2C7"
   width="4.6999998"
   height="19.6"
   id="rect1179"
   style="fill:#cccccc" />
					
						<rect
   x="735.5"
   y="429.29999"
   transform="matrix(0.866,-0.5001,0.5001,0.866,-119.1545,427.4586)"
   fill="#F8D2C7"
   width="4.6999998"
   height="13.5"
   id="rect1181"
   style="fill:#cccccc" />
					
						<rect
   x="699.40002"
   y="465.39999"
   transform="matrix(0.4999,-0.8661,0.8661,0.4999,-58.0349,843.8522)"
   fill="#F8D2C7"
   width="4.6999998"
   height="13.5"
   id="rect1183"
   style="fill:#cccccc" />
					<rect
   x="681.70001"
   y="519.20001"
   fill="#F8D2C7"
   width="19.6"
   height="4.6999998"
   id="rect1185"
   style="fill:#cccccc" />
					
						<rect
   x="699.40002"
   y="564.20001"
   transform="matrix(-0.4999,-0.8661,0.8661,-0.4999,557.965,1464.1443)"
   fill="#F8D2C7"
   width="4.6999998"
   height="13.5"
   id="rect1187"
   style="fill:#cccccc" />
					
						<rect
   x="735.5"
   y="600.40002"
   transform="matrix(-0.8661,-0.4999,0.4999,-0.8661,1073.4069,1501.8406)"
   fill="#F8D2C7"
   width="4.6999998"
   height="13.5"
   id="rect1189"
   style="fill:#cccccc" />
					<rect
   x="784.90002"
   y="607.09998"
   fill="#F8D2C7"
   width="4.6999998"
   height="20"
   id="rect1191"
   style="fill:#cccccc" />
					
						<rect
   x="834.29999"
   y="600.40002"
   transform="matrix(-0.866,0.5,-0.5,-0.866,1864.8243,714.5396)"
   fill="#F8D2C7"
   width="4.6999998"
   height="13.5"
   id="rect1193"
   style="fill:#cccccc" />
					
						<rect
   x="870.5"
   y="564.20001"
   transform="matrix(-0.5,0.866,-0.866,-0.5,1803.73,100.5711)"
   fill="#F8D2C7"
   width="4.6999998"
   height="13.5"
   id="rect1195"
   style="fill:#cccccc" />
					<rect
   x="872.79999"
   y="519.20001"
   fill="#F8D2C7"
   width="20"
   height="4.6999998"
   id="rect1197"
   style="fill:#cccccc" />
					
						<rect
   x="870.5"
   y="465.39999"
   transform="matrix(0.5001,0.866,-0.866,0.5001,845.2227,-519.8019)"
   fill="#F8D2C7"
   width="4.6999998"
   height="13.5"
   id="rect1199"
   style="fill:#cccccc" />
					
						<rect
   x="834.29999"
   y="429.29999"
   transform="matrix(0.8659,0.5002,-0.5002,0.8659,330.28,-360.0326)"
   fill="#F8D2C7"
   width="4.6999998"
   height="13.5"
   id="rect1201"
   style="fill:#cccccc" />
				</g>
				
					<rect
   x="-47.89098"
   y="349.41132"
   transform="rotate(-31.084619)"
   fill="#271f4a"
   width="8.3999434"
   height="94.79937"
   id="rect1205"
   style="stroke-width:0.999993" />
				
					<rect
   x="-357.43588"
   y="8.0474205"
   transform="rotate(-112.79836)"
   fill="#271f4a"
   width="5.4001508"
   height="64.301796"
   id="rect1207"
   style="stroke-width:1.00003" />
				<g
   id="g1213"
   transform="translate(-641.12549,-198.23733)">
					<circle
   fill="#7c98db"
   cx="787.29999"
   cy="523.09998"
   r="15.5"
   id="circle1209" />
					<circle
   fill="#ffffff"
   cx="787.29999"
   cy="523.09998"
   r="8.1999998"
   id="circle1211" />
				</g>
			</g>
		</g>
	</g>
	
	
	
</g>
</svg>
