<?xml version="1.0" encoding="UTF-8" standalone="no"?>
<svg
   version="1.1"
   x="0px"
   y="0px"
   viewBox="0 0 57 57"
   xml:space="preserve"
   style="fill:#107ca0"
   id="svg30"
   sodipodi:docname="logo.svg"
   width="57"
   height="57"
   inkscape:version="1.2.2 (732a01da63, 2022-12-09)"
   xmlns:inkscape="http://www.inkscape.org/namespaces/inkscape"
   xmlns:sodipodi="http://sodipodi.sourceforge.net/DTD/sodipodi-0.dtd"
   xmlns="http://www.w3.org/2000/svg"
   xmlns:svg="http://www.w3.org/2000/svg"><defs
   id="defs34" /><sodipodi:namedview
   id="namedview32"
   pagecolor="#ffffff"
   bordercolor="#000000"
   borderopacity="0.25"
   inkscape:showpageshadow="2"
   inkscape:pageopacity="0.0"
   inkscape:pagecheckerboard="0"
   inkscape:deskcolor="#d1d1d1"
   showgrid="false"
   inkscape:zoom="5.8619152"
   inkscape:cx="35.824469"
   inkscape:cy="41.624621"
   inkscape:window-width="1920"
   inkscape:window-height="1009"
   inkscape:window-x="3832"
   inkscape:window-y="-8"
   inkscape:window-maximized="1"
   inkscape:current-layer="g28" />
<g
   id="g28">
  <circle
   cx="28.505318"
   cy="28.505318"
   r="4.5279999"
   id="circle2" />
  <path
   d="m 28.505319,20.594319 c 1.06,0 1.917,-0.859 1.917,-1.918 0,-1.059 -0.857,-1.917 -1.917,-1.917 -3.138,0 -6.088,1.222 -8.306,3.44 -2.219,2.218 -3.441,5.169 -3.441,8.306 0,3.139 1.223,6.088 3.441,8.307 0.374,0.373 0.865,0.561 1.355,0.561 0.49,0 0.982,-0.188 1.355,-0.561 0.75,-0.75 0.75,-1.963 0,-2.713 -1.493,-1.494 -2.316,-3.48 -2.316,-5.594 0,-2.113 0.823,-4.1 2.317,-5.594 1.494,-1.494 3.482,-2.317 5.595,-2.317 z"
   id="path4" /><path
   d="m 28.505319,36.417319 c -1.06,0 -1.918,0.857 -1.918,1.918 0,1.059 0.858,1.916 1.918,1.916 3.138,0 6.087,-1.221 8.306,-3.439 2.219,-2.218 3.441,-5.17 3.441,-8.307 0,-3.137 -1.223,-6.087 -3.441,-8.305 -0.748,-0.75 -1.963,-0.749 -2.711,0 -0.75,0.749 -0.75,1.963 0,2.712 1.494,1.494 2.316,3.48 2.316,5.594 0,2.114 -0.822,4.1 -2.316,5.594 -1.496,1.493 -3.482,2.317 -5.595,2.317 z"
   id="path6" /><path
   d="m 28.505319,47.603319 c 5.101,0 9.896,-1.986 13.503,-5.594 3.607,-3.608 5.594,-8.402 5.594,-13.504 0,-1.059 -0.857,-1.918 -1.918,-1.918 -1.059,0 -1.916,0.859 -1.916,1.918 0,4.077 -1.588,7.911 -4.471,10.793 -2.882,2.881 -6.714,4.469 -10.792,4.469 -1.06,0 -1.918,0.859 -1.918,1.918 0,1.059 0.859,1.918 1.918,1.918 z"
   id="path8" /><path
   d="m 42.009319,17.713319 c 0.75,-0.749 0.75,-1.963 0,-2.712 -3.605,-3.607 -8.402,-5.5940004 -13.503,-5.5940004 -5.102,0 -9.897,1.9860004 -13.504,5.5940004 -3.607,3.607 -5.5940004,8.402 -5.5940004,13.504 0,5.102 1.9870004,9.899 5.5940004,13.504 0.374,0.375 0.865,0.561 1.356,0.561 0.49,0 0.981,-0.186 1.355,-0.561 0.749,-0.75 0.749,-1.963 0,-2.711 -2.883,-2.883 -4.47,-6.717 -4.47,-10.793 0,-4.076 1.587,-7.91 4.47,-10.792 2.883,-2.883 6.715,-4.47 10.792,-4.47 4.078,0 7.91,1.587 10.792,4.47 0.749,0.749 1.964,0.749 2.712,0 z"
   id="path10" /><path
   d="m 28.505319,56.275319 c 1.06,0 1.917,-0.857 1.917,-1.916 0,-1.061 -0.857,-1.918 -1.917,-1.918 -6.394,0 -12.404,-2.49 -16.925,-7.012 -4.5210004,-4.52 -7.0100004,-10.531 -7.0100004,-16.924 0,-6.394 2.489,-12.404 7.0100004,-16.924 0.749,-0.749 0.749,-1.9640004 0,-2.7120004 -0.748,-0.749 -1.9640004,-0.749 -2.7120004,0 -5.245,5.2430004 -8.133,12.2180004 -8.133,19.6360004 0,7.418 2.889,14.391 8.134,19.637 5.2450004,5.244 12.2180004,8.133 19.6360004,8.133 z"
   id="path12" /><path
   d="m 46.786319,48.702319 c 0.49,0 0.982,-0.188 1.355,-0.561 5.246,-5.246 8.135,-12.219 8.135,-19.637 0,-7.418 -2.889,-14.392 -8.135,-19.6370004 -5.246,-5.244 -12.218,-8.133 -19.636,-8.133 -1.06,0 -1.918,0.858 -1.918,1.917 0,1.059 0.858,1.917 1.918,1.917 6.392,0 12.404,2.49 16.925,7.0110004 4.52,4.52 7.01,10.531 7.01,16.924 0,6.393 -2.49,12.405 -7.01,16.924 -0.75,0.748 -0.75,1.963 0,2.713 0.374,0.375 0.866,0.562 1.356,0.562 z"
   id="path14" />
</g>
</svg>
