<?xml version="1.0" encoding="iso-8859-1"?>
<!-- Generator: Adobe Illustrator 21.0.0, SVG Export Plug-In . SVG Version: 6.00 Build 0)  -->
<svg version="1.1" xmlns="http://www.w3.org/2000/svg" xmlns:xlink="http://www.w3.org/1999/xlink" x="0px" y="0px" width="720px"
	 height="720px" viewBox="0 0 720 720" enable-background="new 0 0 720 720" xml:space="preserve">
<g id="Layer_1">
</g>
<g id="Layer_2">
	<g>
		<path fill="#D4CFC4" d="M356.116,616.719c0,0-68.608,50.054-120.995,44.206c-52.386-5.848-69.7-51.662-69.7-51.662
			s-5.027-21.697,4.383-36.743c0,0-17.457,13.73-14.412,32.211c-19.793-9.905-60.95-35.984-48.98-76.949
			c13.302-45.563,62.605-69.892,85.218-41.009c0.67,1.164,1.249,2.423,1.709,3.754c5.971,16.857-3.589,45.289-10.836,50.014
			c-7.812,5.078-25.23,0.656-25.555-10.82c-0.323-11.255,16.122-10.868,16.741-10.855c-0.59-0.419-12.978-8.925-21.842,4.722
			c-9.057,13.994,23.241,33.66,37.286,25.563c14.039-8.111,11.477-42.655,11.477-42.655s46.587-34.384,67.966-6.704
			c20.952,27.098,7.477,58.951,6.911,60.274l-0.021,0.027c0,0-19.2,16.378-36.946,7.99c-17.753-8.367-13.171-36.452-3.554-37.719
			c9.361-1.231,12.139,12.081,12.295,12.807c0.103-0.968,2.282-24.527-10.909-22.215c-13.475,2.361-25.511,20.098-16.184,39.043
			c9.335,18.925,29.505,27.902,45.723,17.703c16.224-10.184,9.421-22.9,28.846-20.927c1.978,1.481,3.926,3.76,5.719,7.117
			c5.585,10.501,4.497,18.491,2.428,23.472l-11.907-6.52l8.031,12.612C299.01,593.456,315.001,620.076,356.116,616.719z"/>
		<path fill="#D4CFC4" d="M475.764,608.71c0,0,49.47,37.103,87.668,33.35c38.197-3.754,51.244-36.943,51.244-36.943
			s3.869-15.748-2.837-26.794c0,0,12.578,10.165,10.183,23.591c14.506-7.021,44.722-25.613,36.401-55.554
			c-9.246-33.301-44.908-51.489-61.651-30.678c-0.499,0.841-0.933,1.752-1.281,2.717c-4.51,12.215,2.177,33.008,7.408,36.518
			c5.639,3.772,18.363,0.72,18.71-7.632c0.343-8.192-11.633-8.068-12.084-8.064c0.433-0.299,9.535-6.373,15.857,3.648
			c6.46,10.276-17.245,24.283-27.393,18.253c-10.143-6.04-7.945-31.167-7.945-31.167s-33.588-25.482-49.42-5.535
			c-15.515,19.528-6.011,42.849-5.612,43.818l0.015,0.02c0,0,13.822,12.109,26.823,6.173c13.006-5.921,9.94-26.413,2.951-27.428
			c-6.804-0.986-8.954,8.679-9.075,9.206c-0.066-0.706-1.426-17.88,8.156-16.069c9.788,1.848,18.38,14.878,11.407,28.582
			c-6.978,13.689-21.75,20.031-33.46,12.449c-11.714-7.571-6.638-16.764-20.801-15.514c-1.455,1.059-2.894,2.7-4.233,5.127
			c-4.167,7.592-3.452,13.419-1.994,17.066l8.732-4.633l-5.969,9.105C517.566,592.322,505.667,611.55,475.764,608.71z"/>
		<g>
			<path fill="#D4CFC4" d="M494.355,559.922c-2.155,0.397-3.416,0.581-3.416,0.581s30.14,82.863,39.723,95.878
				c9.584,13.014-22.598,19.862-50.682,28.084c-28.084,8.223-66.404-2.736-79.773,0c-13.383,2.736-62.491,13.766-88.959,3.119
				c-7.103-2.85-12.192-5.784-15.765-8.676c-2.637-2.127-4.423-4.239-5.585-6.28c-3.105-5.515-1.517-10.533,1.035-14.191
				c4.381-6.266,28.283-112.379,33.344-154.201c0.198-1.488,0.354-2.906,0.482-4.225c0.213-2.112,0.354-3.998,0.425-5.628
				c0,0-39.27,25.703-61.641,33.925c-1.446,0.525-2.821,0.992-4.111,1.361c-7.953,2.311-15.523-0.766-22.13-6.706
				c-11.03-9.909-19.394-27.786-22.385-41.921c-4.806-22.598-7.542-91.781,8.903-89.725c12.688,1.588,71.125,22.102,93.936,12.943
				c6.719-2.694,10.349-7.967,8.804-17.055c0,0-48.641-66.716-45.21-90.887c0.241-1.659,0.624-3.459,1.163-5.401
				c7.174-26.227,40.602-75.179,72.982-78.369c24.03-2.368,38.391,6.72,44.955,12.561c2.935,2.608,4.324,4.565,4.324,4.565
				s1.021,0.383,2.85,1.106c13.553,5.359,71.706,29.431,92.22,55.545c5.897,7.514,11.214,13.822,15.949,19.181
				c13.964,15.849,22.753,23.519,25.83,29.643c2.481,4.948-5.232,11.512-13.766,15.509c-5.643,2.637-11.668,4.154-15.339,3.332
				c-2.027-0.454-4.452-0.879-7.088-1.276h-0.014c-7.372-1.092-16.247-1.871-21.407-1.758c-1.432,0.028-2.594,0.128-3.346,0.298
				c0,0-5.217,20.571-18.004,33.798c-0.695,0.737-1.432,1.46-2.197,2.155c0,0,13.255,19.904,29.303,45.139
				c24.668,38.802,55.97,90.235,55.97,101.435C545.732,549.474,506.335,557.768,494.355,559.922z"/>
			<path fill="#FFFFFF" d="M317.756,404.261c-0.78,1.9-2.339,3.743-4.877,5.487c-24.469,16.856-78.44,2.027-78.44,2.027
				l7.641,21.861c0,0,17.508,29.431,21.464,46.145c3.955,16.714-0.921,35.541-2.127,39.496c-1.219,3.941-9.073,1.304-9.073,1.304
				l-15.041,2.382c-11.03-9.909-19.394-27.786-22.385-41.921c-4.806-22.598-7.542-91.781,8.903-89.725
				C236.508,392.906,294.945,413.42,317.756,404.261z"/>
			<path fill="#FFFFFF" d="M541.734,528.294c-1.077-1.573-70.487-102.427-79.517-119.595c-9.116-17.324-14.588-37.427-14.588-37.427
				l15.027,13.78c-0.695,0.737-1.432,1.46-2.197,2.155c0,0,13.255,19.904,29.303,45.139L541.734,528.294z"/>
			<path fill="#FFFFFF" d="M416.809,255.915c-1.219-1.885-21.322-32.281-55.757-34.053c-35.541-1.815-78.539,69.055-78.539,69.055
				c7.174-26.227,40.602-75.179,72.982-78.369c24.03-2.368,38.391,6.72,44.955,12.561L416.809,255.915z"/>
			<path fill="#FFFFFF" d="M345.712,462.585c0,0-21.676,138.408-31.656,165.755c-9.966,27.333-18.175,50.569-18.175,50.569h-0.397
				c-2.637-2.127-4.423-4.239-5.585-6.28c-3.105-5.515-1.517-10.533,1.035-14.191c4.381-6.266,28.283-112.379,33.344-154.201
				c4.65-8.648,7.585-14.049,7.585-14.049l6.351-38.022L345.712,462.585z"/>
			<path fill="#7F777F" d="M479.98,684.466c-28.084,8.223-66.404-2.736-79.773,0c-13.383,2.736-62.491,13.766-88.959,3.119
				c-12.348-4.962-18.643-10.151-21.35-14.957c1.545-2.382,2.609-3.984,2.609-3.984s34.52,10.122,53.957,6.479
				c19.45-3.658,40.942-121.41,42.346-113.258c1.403,8.138,11.398,62.364,11.398,62.364l3.317,39.17c0,0,32.252,8.931,62.633,0
				c30.097-8.86,8.719-139.06,8.322-141.47l19.876,37.994c-2.155,0.397-3.416,0.581-3.416,0.581s30.14,82.863,39.723,95.878
				C540.246,669.396,508.064,676.243,479.98,684.466z"/>
			<path fill="#7F777F" d="M336.142,479.781l-11.384,20.23c0.213-2.112,0.354-3.998,0.425-5.628c0,0-39.27,25.703-61.641,33.925
				c9.073-18.316,4.678-39.752,4.678-39.752s47.861-21.237,52.695-31.586c4.834-10.349-9.045-50.228-9.045-50.228
				s17.735,0.128,22.286,17.778C338.723,442.17,336.142,479.781,336.142,479.781z"/>
			<path fill="#7F777F" d="M441.477,375.658c0,0,7.063,29.173,7.974,36.118c0.911,6.944-37.366,76.346-36.455,84.479
				c0.911,8.133,0.424,27.094-0.016,35.385c-0.44,8.292-40.084,48.392-49.653,49.759c-9.569,1.367-43.148-38.8-43.148-38.8
				l8.684-40.266l19.443,7.475l-10.041,6.428c0,0,20.04,1.215,30.754-6.683c10.714-7.898,22.349-81.719,22.349-81.719l38.185-73.619
				L441.477,375.658z"/>
			<path fill="#7F777F" d="M418.921,259.231l12.895,24.542c0,0,13.654-27.047,0-40.984c-13.654-13.937-30.297-14.544-30.297-14.544
				L418.921,259.231z"/>
			<path fill="#7F777F" d="M484.006,350.957c-1.432,0.028-2.594,0.128-3.346,0.298c0,0-5.217,20.571-18.004,33.798l-15.027-13.78
				c14.12-10.094,14.588-54.113,14.588-54.113l21.407,32.323C483.624,349.482,483.766,350.035,484.006,350.957z"/>
			<path fill="#7F777F" d="M311.869,366.744c0,0-23.122-56.2-20.691-67.73c2.43-11.531,31.857-62.111,54.966-64.39
				c23.108-2.278,65.949,31.268,78.932,67.81C438.06,338.975,311.869,366.744,311.869,366.744z"/>
			<path fill="#7F777F" d="M527.856,350.659c-5.643,2.637-11.668,4.154-15.339,3.332c-2.027-0.454-4.452-0.879-7.088-1.276h-0.014
				l1.15-2.447l-39.839-33.094c0.935,0.255,32.479,9.045,37.866,8.024c5.472-1.035,28.212,7.003,30.296,10.59
				C536.106,337.871,531.726,345.045,527.856,350.659z"/>
			<path fill="#621A40" d="M341.163,696.143c-11.446,0.001-22.524-1.287-31.408-4.861c-14.203-5.714-22.579-12.565-24.895-20.362
				c-1.466-4.935-0.494-10.04,2.812-14.764c4.418-7.549,28.409-114.123,32.869-154.078c-13.435,8.459-43.289,26.573-60,31.424
				c-6.597,1.918-13.274,0.896-19.836-3.035c-14.578-8.729-25.972-31.054-29.693-48.596c-3.687-17.382-7.857-77.395,4.795-91.167
				c3-3.264,6.282-3.617,8.502-3.341c3.485,0.436,9.754,2.084,17.691,4.17c23.205,6.102,66.4,17.46,78.14,6.717
				c2.317-2.121,3.177-5.23,2.62-9.484c-7.176-9.923-48.797-68.722-45.357-93.008c3.408-24.053,39.412-83.4,77.702-87.172
				c32.511-3.204,48.488,13.349,52.127,17.761c9.361,3.604,73.321,28.973,95.745,57.52c12.228,15.569,21.968,25.926,29.081,33.489
				c6.586,7.003,10.937,11.63,13.131,16.016c0.962,1.925,1.993,5.901-1.916,10.907c-5.868,7.514-22.573,15.61-31.624,13.602
				c-8.335-1.853-22.046-3.122-27.895-2.951c-1.919,6.219-7.497,21.757-18.143,32.83c14.546,21.945,84.108,127.845,84.108,146.024
				c0,18.45-37.886,27.098-53.383,29.862c9.409,25.593,30.407,80.698,37.538,90.377c3.058,4.149,2.762,7.753,1.975,10.047
				c-3.332,9.707-22.307,15.05-44.276,21.236c-3.495,0.985-7.015,1.975-10.472,2.987c-18.206,5.33-39.881,3.004-57.299,1.134
				c-9.84-1.056-18.334-1.966-22.795-1.053l-2.155,0.445C387.476,691.184,363.62,696.143,341.163,696.143z M325.184,490.391
				c0.68,0,1.36,0.174,1.972,0.523c1.3,0.74,2.076,2.145,2.01,3.638c-1.365,31.018-29.152,157.875-34.963,166.176
				c-1.889,2.697-2.461,5.364-1.701,7.921c1.092,3.678,5.488,9.307,20.23,15.237c24.075,9.689,69.552,0.235,84.494-2.871l2.18-0.45
				c5.671-1.163,14.309-0.236,25.243,0.937c16.717,1.794,37.525,4.026,54.21-0.858c3.482-1.02,7.028-2.018,10.549-3.01
				c16.45-4.632,36.923-10.396,38.899-16.152c0.101-0.293,0.368-1.073-0.853-2.731c-9.816-13.322-39.023-93.486-40.262-96.892
				c-0.409-1.124-0.291-2.372,0.32-3.399c0.611-1.028,1.652-1.727,2.834-1.905c21.343-3.208,51.4-12.395,51.4-22.771
				c0-12.593-51.895-95.233-84.605-144.366c-1.094-1.643-0.82-3.839,0.644-5.164c13.292-12.026,18.961-33.768,19.017-33.986
				c0.368-1.445,1.513-2.566,2.966-2.901c5.566-1.286,24.886,0.795,33.61,2.732c5.012,1.121,18.786-4.547,23.611-10.726
				c0.959-1.227,1.226-2.123,1.069-2.437c-1.671-3.341-5.923-7.862-11.808-14.12c-7.214-7.672-17.095-18.178-29.543-34.026
				c-22.341-28.443-92.628-55.118-93.335-55.384c-0.746-0.28-1.391-0.779-1.851-1.43c-0.539-0.745-13.802-18.591-45.635-15.458
				c-31.635,3.117-67.207,56.48-70.59,80.358c-2.622,18.512,31.219,69.789,44.48,87.986c0.362,0.497,0.605,1.072,0.707,1.677
				c1.277,7.492-0.393,13.409-4.961,17.591c-13.789,12.621-49.823,4.507-85.549-4.888c-7.347-1.932-13.693-3.6-16.651-3.97
				c-0.296-0.036-0.794-0.1-1.643,0.825c-8.865,9.649-7.346,63.011-2.869,84.119c3.281,15.464,13.505,35.934,25.992,43.411
				c4.585,2.747,9.137,3.49,13.518,2.219c20.418-5.927,64.244-34.517,64.684-34.806
				C323.664,490.609,324.423,490.391,325.184,490.391z"/>
			<path fill="#FFCFA5" d="M435.111,391.658c-0.028,0.354-0.127,0.879-0.312,1.545c-3.87,13.822-40.928,91.114-43.863,95.041
				c-3.09,4.097-11.341,0.51-17.735,0c-6.408-0.51-26.95-11.823-32.607-29.275c-5.642-17.48-13.879-31.345-17.466-43.154
				c-3.6-11.823-9.243-35.343-7.712-40.021c1.021-3.062,4.239-9.201,6.323-13.057c1.106-2.027,1.9-3.431,1.9-3.431
				s-0.17-0.496-0.468-1.404c-0.368-1.035-0.893-2.637-1.545-4.664c-2.453-7.613-6.55-21.152-8.818-33.259
				c-0.709-3.7-1.233-7.273-1.488-10.505c-0.085-0.992-0.085-2.027-0.043-3.133c0.241-5.103,1.885-11.256,4.466-17.565
				c1.134-2.75,2.438-5.515,3.884-8.237c8.265-15.424,21.194-29.332,32.266-28.098c17.863,1.999,62.633,30.849,71.621,56.438
				c0.312,0.893,0.581,1.772,0.808,2.651c6.677,26.199,3.601,47.776,3.601,47.776S435.635,383.96,435.111,391.658z"/>
			
				<ellipse transform="matrix(0.963 -0.2694 0.2694 0.963 -77.2918 101.4937)" fill="#FFECC9" cx="331.1" cy="332.324" rx="5.051" ry="7.62"/>
			
				<ellipse transform="matrix(0.1016 -0.9948 0.9948 0.1016 28.4945 674.0526)" fill="#FFECC9" cx="387.434" cy="321.25" rx="7.62" ry="5.051"/>
			<path fill="#D77D75" d="M334.456,313.374c-5.118-0.936-12.022,2.041-16.502,5.16c-1.276,0.893-3.218,1.418-5.146,1.446
				c-0.709-3.7-1.233-7.273-1.488-10.505c-0.085-0.992-0.085-2.027-0.043-3.133c5.997-6.195,11.228-4.692,16.516-3.374
				c2.58,0.638,5.16,2.779,6.862,4.948C337.022,310.907,337.716,313.969,334.456,313.374z"/>
			<path fill="#D77D75" d="M391.194,302.687c-6.677-2.056-16.261-3.02-22.172,0c-3.799,1.956-4.097-2.07-2.283-6.564
				c1.262-3.19,3.587-6.621,6.45-8.322c6.904-4.111,13.638-8.478,26.482,1.021c0.822,0.609,1.531,1.205,2.141,1.786
				C410.673,299.114,397.446,304.615,391.194,302.687z"/>
			<path fill="#FFECC9" d="M331.521,354.472l-8.35,3.431c-0.368-1.035-0.893-2.637-1.545-4.664
				c-3.204-9.938-9.201-29.97-10.306-43.764c-0.454-5.614,1.276-13.043,4.423-20.698c1.134-2.75,2.438-5.515,3.884-8.237
				l2.453-1.588c-0.142,0.34-2.509,5.912-2.835,23.477C318.918,320.576,331.521,354.472,331.521,354.472z"/>
			<path fill="#D77D75" d="M435.111,391.658c-0.028,0.354-0.127,0.879-0.312,1.545l-113.06-30.466c1.106-2.027,1.9-3.431,1.9-3.431
				s-0.808-2.311-2.013-6.068c6.762-7.329,17.99-17.508,29.7-19.522c18.699-3.218,46.571,2.07,46.571,2.07v-42.871
				c0,0-35.031-19.408-50.214-19.309c-15.183,0.113-29.233,17.82-29.233,17.82l-2.708-2.651
				c7.528-18.288,23.122-37.781,36.151-36.335c17.863,1.999,62.633,30.849,71.621,56.438c0.312,0.893,0.581,1.772,0.808,2.651
				c6.677,26.199,3.601,47.776,3.601,47.776S435.635,383.96,435.111,391.658z"/>
			<path fill="#621A40" d="M386.004,494.15c-2.588,0-5.308-0.55-7.757-1.046c-1.933-0.392-3.76-0.762-5.37-0.89
				c-7.655-0.61-29.776-12.588-36.075-32.022c-2.935-9.086-6.665-17.353-9.956-24.648c-2.97-6.583-5.776-12.799-7.533-18.572
				c-0.104-0.342-10.228-34.643-7.678-42.421c1.331-4.02,5.713-12.128,7.655-15.64c-2.311-6.832-10.581-32.196-11.948-49.121
				c-1.138-14.103,9.968-38.225,23.768-51.621c7.28-7.066,14.623-10.406,21.222-9.684c18.093,2.023,65.174,31.27,74.951,59.071
				c0.384,1.131,0.675,2.097,0.903,2.994c6.099,23.917,4.319,43.889,3.795,48.393c1.513,4.912,7.624,25.34,7.106,32.983l0,0
				c-0.596,8.974-41.875,94.594-44.963,98.707C392.092,493.339,389.145,494.15,386.004,494.15z M350.53,256.358
				c-3.951,0-8.83,2.64-13.868,7.53c-11.93,11.582-22.319,33.577-21.375,45.26c1.477,18.279,12.005,48.532,12.112,48.836
				c0.379,1.083,0.272,2.276-0.291,3.275c-1.801,3.192-6.731,12.25-7.903,15.787c-0.794,3.247,3.172,22.607,7.734,37.605
				c1.608,5.282,4.187,10.996,7.172,17.614c3.377,7.484,7.205,15.968,10.274,25.473c5.109,15.761,24.047,26.124,29.126,26.53
				c2.088,0.166,4.238,0.602,6.317,1.022c2.35,0.476,7.24,1.461,7.918,0.558c4.402-6.365,42.465-87.381,43.386-94.48
				c0.332-5.092-4.127-21.633-7.02-30.878c-0.178-0.567-0.226-1.166-0.141-1.754c0.028-0.206,2.875-21.176-3.514-46.221
				c-0.179-0.706-0.405-1.454-0.711-2.356c-8.4-23.885-52.135-51.945-68.297-53.752C351.149,256.375,350.842,256.358,350.53,256.358
				z M431.136,391.355L431.136,391.355L431.136,391.355L431.136,391.355z"/>
			<path fill="#B18978" d="M435.111,391.658c-0.51,7.712-41.099,92.475-44.175,96.586c-3.09,4.097-11.341,0.51-17.735,0
				c-0.326-0.028-0.681-0.085-1.078-0.17c-7.372-1.503-26.156-12.532-31.529-29.105c-5.642-17.48-13.879-31.345-17.466-43.154
				c-3.6-11.823-9.243-35.343-7.712-40.021c1.56-4.678,8.223-16.488,8.223-16.488s18.104-18.104,31.402-20.755
				c1.219-0.241,2.41-0.354,3.53-0.312c13.369,0.51,46.741,6.677,51.363,6.677c4.636,0,13.581-36.037,13.581-36.037
				c0.312,0.893,0.581,1.772,0.808,2.651c6.677,26.199,3.601,47.776,3.601,47.776S435.635,383.96,435.111,391.658z"/>
			<path fill="#81535C" d="M435.111,391.658c-0.51,7.712-41.099,92.475-44.175,96.586c-3.09,4.097-11.341,0.51-17.735,0
				c-0.326-0.028-0.681-0.085-1.078-0.17l-0.156-2.92l-19.124-17.225l12.702,6.38l-5.869-30.976l15.481,28.708l6.607-28.708v30.976
				c0.95-8.265,30.324-69.254,31.685-74.783c1.375-5.515-5.005-23.874-5.005-23.874l-4.919,9.116c0,0,2.637-22.102,0-28.027
				c-2.637-5.912-48.031-14.9-48.031-14.9l-0.454-3.289c1.219-0.241,2.41-0.354,3.53-0.312c13.369,0.51,46.741,6.677,51.363,6.677
				c4.636,0,13.581-36.037,13.581-36.037c0.312,0.893,0.581,1.772,0.808,2.651c6.677,26.199,3.601,47.776,3.601,47.776
				S435.635,383.96,435.111,391.658z"/>
			<path fill="#621A40" d="M386.048,493.502c-2.486,0-5.155-0.541-7.669-1.05c-1.868-0.378-3.8-0.768-5.449-0.9
				c-7.526-0.601-29.287-12.405-35.497-31.565c-2.945-9.12-6.684-17.405-9.982-24.716c-2.962-6.562-5.758-12.76-7.503-18.492
				c-0.104-0.34-10.171-34.429-7.683-42.019c1.637-4.942,8.2-16.597,8.477-17.091c0.149-0.263,0.332-0.503,0.545-0.716
				c2.313-2.315,23.036-22.649,37.412-22.035c8.149,0.311,23.181,2.619,35.261,4.473c6.203,0.952,12.592,1.933,15.148,2.157
				c2.625-3.377,7.737-19.562,11.19-33.47c0.355-1.431,1.611-2.456,3.085-2.518c1.453-0.061,2.81,0.855,3.284,2.252
				c0.365,1.073,0.65,2.022,0.873,2.902c6.142,24.083,4.259,44.127,3.764,48.292c1.432,4.641,7.635,25.277,7.119,32.878l0,0
				c-0.593,8.933-41.752,94.25-44.832,98.351C391.714,492.736,389.01,493.502,386.048,493.502z M326.304,361.332
				c-1.964,3.507-6.588,12.057-7.73,15.506c-0.904,3.128,3.066,22.674,7.729,38.007c1.62,5.322,4.207,11.056,7.203,17.693
				c3.37,7.469,7.189,15.934,10.247,25.404c5.196,16.03,24.519,26.574,29.706,26.988c2.047,0.164,4.177,0.595,6.237,1.012
				c3.227,0.653,7.646,1.545,8.582,0.305c4.254-6.014,42.834-88.203,43.516-94.813c0.396-5.813-4.954-24.449-7.048-31.141
				c-0.148-0.471-0.188-0.971-0.119-1.46c0.026-0.18,2.148-15.783-1.335-36.158c-7.333,25.563-11.309,25.563-13.356,25.563
				c-2.023,0-7.493-0.824-16.986-2.281c-11.912-1.828-26.736-4.103-34.507-4.401C348.813,341.206,332.314,355.408,326.304,361.332z
				 M435.108,391.664h0.013H435.108z"/>
			<path fill="#B18978" d="M400.179,524.197c1.035,8.733-35.697,43.665-51.362,40.064c-9.683-2.212-20.953-11.909-28.637-21.648
				v-0.014c-4.749-6.011-8.123-12.036-8.931-16.346c-2.126-11.299,3.402-35.711,10.335-36.066c2.608-0.142,7.032,2.594,11.525,6.068
				c1.928,1.474,3.856,3.09,5.685,4.678c5.26,4.565,9.513,8.875,9.513,8.875s-4.338-1.007-8.633-2.169
				c-3.53-0.964-7.018-2.013-8.067-2.708c-2.311-1.545-2.311,12.079-1.545,14.134c0.765,1.985,5.174,8.648,12.291,9.215
				c0.184,0.014,0.369,0.028,0.553,0.028c7.443,0.255,23.122-15.155,26.114-18.756c1.715-2.056,2.835-8.761,3.487-14.092
				c0.482-3.984,0.695-7.216,0.695-7.216h17.735l0.255,14.12C391.191,502.365,399.159,515.464,400.179,524.197z"/>
			<path fill="#81535C" d="M342.792,531.626c0,0-6.082,0.411-15.637-3.232c-9.541-3.657-5.288-31.6-5.288-31.6l11.242-0.539
				c1.928,1.474,3.856,3.09,5.685,4.678l0.879,6.706c-3.53-0.964-7.018-2.013-8.067-2.708c-2.311-1.545-2.311,12.079-1.545,14.134
				c0.765,1.985,5.174,8.648,12.291,9.215L342.792,531.626z"/>
			<path fill="#81535C" d="M400.179,524.197c1.035,8.733-35.697,43.665-51.362,40.064c-9.683-2.212-20.953-11.909-28.637-21.648
				v-0.014c-3.006-8.861-5.458-16.176-5.671-16.956c-0.581-2.098,28.765,24.767,28.765,24.767s13.212,0.454,22.272-2.283
				c9.059-2.722,12.957-17.31,12.957-17.31l3.261-9.116l-9.598,11.852l6.337-21.421l-5.316-3.53l-0.681-13.142
				c0.482-3.984,0.695-7.216,0.695-7.216h17.735l0.255,14.12C391.191,502.365,399.159,515.464,400.179,524.197z"/>
			<path fill="#621A40" d="M351.216,567.841c-1.086,0-2.137-0.108-3.146-0.34c-17.155-3.936-37.822-28.571-40.091-40.637
				c-1.805-9.593,1.305-28.632,7.376-36.353c1.81-2.3,3.848-3.526,6.06-3.642c0.097-0.004,0.197-0.007,0.297-0.007
				c7.93,0,24.125,15.738,28.95,20.612c1.041,1.052,1.26,2.665,0.538,3.956c-0.72,1.292-2.213,1.951-3.651,1.617
				c-3.341-0.776-10.121-2.414-14.434-3.901c-0.297,2.969-0.238,7.612,0.091,8.845c0.304,0.799,3.891,6.791,9.814,6.996
				c0.034,0,0.069,0.001,0.103,0.001c5.037,0.001,18.937-12.27,23.346-17.558c1.23-1.527,2.826-10.598,3.412-19.408
				c0.115-1.745,1.565-3.101,3.314-3.101h17.74c1.811,0,3.288,1.451,3.322,3.26l0.243,13.243c1.787,3.062,8.023,14.22,8.983,22.385
				c0.93,7.907-14.893,22.54-18.075,25.393C380.263,553.815,363.592,567.838,351.216,567.841z M321.842,493.501
				c-0.027,0-0.054,0-0.08,0.001c-3.554,0.928-9.352,20.985-7.254,32.134c1.879,9.995,20.627,32.081,35.049,35.39
				c5.382,1.239,16.322-4.138,27.852-13.697c12.951-10.738,19.563-20.528,19.474-22.765c-0.928-7.884-8.452-20.353-8.528-20.477
				c-0.305-0.502-0.471-1.077-0.483-1.663l-0.198-10.861h-11.407c-0.54,6.075-1.866,16.723-4.695,20.118
				c-0.17,0.205-18.431,20.342-28.78,19.943c-8.764-0.302-14.546-7.955-15.838-11.399c-0.711-1.896-1.73-15.004,1.91-17.892
				c1.339-1.064,3.141-1.128,4.584-0.165c0.428,0.253,1.514,0.641,3.004,1.1C329.76,497.486,323.945,493.501,321.842,493.501z"/>
			<path fill="#F15A5C" d="M373.195,488.241c0,0,12.659-5.061,18.925-2.019c6.266,3.042-0.926,16.141-0.926,16.141
				s-13.041,2.568-19.748,0C364.738,499.795,373.195,488.241,373.195,488.241z"/>
			<path fill="#621A40" d="M379.656,506.832c-3.309,0-6.709-0.337-9.399-1.367c-2.234-0.856-3.753-2.455-4.394-4.625
				c-1.641-5.567,3.587-13.106,4.651-14.56c0.368-0.502,0.869-0.891,1.448-1.122c1.436-0.572,14.235-5.502,21.608-1.923
				c1.928,0.935,3.298,2.535,3.965,4.625c1.89,5.936-2.525,14.454-3.429,16.101c-0.474,0.863-1.304,1.47-2.269,1.661
				C390.927,505.801,385.433,506.832,379.656,506.832z M375.334,490.98c-1.885,2.827-3.525,6.542-3.098,7.981
				c0.023,0.082,0.049,0.166,0.397,0.3c4.164,1.596,12.147,0.79,16.349,0.121c1.448-3.08,2.878-7.455,2.223-9.506
				c-0.129-0.402-0.288-0.543-0.536-0.664C387.321,487.585,379.869,489.323,375.334,490.98z"/>
			<path fill="#B18978" d="M391.191,295.852c-6.677-2.056-16.261-3.02-22.172,0c-3.799,1.956-4.097-2.07-2.283-6.564
				c1.262-3.19,3.587-6.621,6.451-8.322c6.904-4.111,13.638-8.478,26.482,1.021c0.822,0.61,1.531,1.205,2.141,1.786
				C410.67,292.279,397.443,297.779,391.191,295.852z"/>
			<path fill="#81535C" d="M391.191,295.852c-6.677-2.056-16.261-3.02-22.172,0c-3.799,1.956-4.097-2.07-2.283-6.564
				c4.338-1.942,13.199-5.486,17.565-4.31c5.912,1.588,13.751,2.722,16.218-0.241c0.312-0.369,0.751-0.695,1.29-0.964
				C410.67,292.279,397.443,297.779,391.191,295.852z"/>
			<path fill="#621A40" d="M367.308,299.014c-1.766,0-3.006-0.991-3.637-2.13c-2.442-4.414,2.133-14.624,8.158-18.208l0.419-0.25
				c7.032-4.189,14.998-8.937,29.002,1.425c7.479,5.534,6.586,10.338,5.388,12.708c-2.622,5.191-11.02,7.439-16.226,5.837
				c-6.178-1.9-15.129-2.767-20.18-0.176l0,0C369.141,298.781,368.163,299.014,367.308,299.014z M369.019,295.857h0.013H369.019z
				 M378.71,291.277c4.71,0,9.519,0.887,13.265,2.04c3.17,0.972,8.728-0.795,9.92-3.154c1.07-2.119-2.305-4.93-3.805-6.04
				c-11.163-8.261-16.44-5.114-23.12-1.132l-0.423,0.252c-3.498,2.081-5.885,7.39-6.224,9.997
				C371.342,291.83,374.994,291.277,378.71,291.277z"/>
			<path fill="#B18978" d="M332.669,307.902c-5.118-0.936-12.022,2.041-16.502,5.16c-2.495,1.744-7.443,2.056-10.08,0.198
				c-2.112-1.446-2.764-4.267,0.468-8.818c7.273-10.25,13.326-8.478,19.451-6.947c2.58,0.638,5.161,2.779,6.862,4.948
				C335.235,305.435,335.93,308.497,332.669,307.902z"/>
			<path fill="#81535C" d="M332.868,302.444c2.367,2.991,3.062,6.053-0.199,5.458c-5.118-0.936-12.022,2.041-16.502,5.16
				c-2.495,1.744-7.443,2.056-10.08,0.198c2.651-2.155,6.706-5.33,10.534-7.698C321.385,302.614,329.21,302.373,332.868,302.444z"/>
			<path fill="#621A40" d="M310.78,317.165c-2.738,0-5.478-0.786-7.236-2.557c-1.626-1.641-3.681-5.342,0.838-11.703
				c8.188-11.524,15.789-9.614,21.896-8.082l0.37,0.093c5.643,1.411,11.696,8.522,10.795,12.68c-0.374,1.724-1.974,3.522-5.256,2.92
				l0,0c-4.204-0.771-10.46,1.911-14.495,4.729C315.937,316.469,313.359,317.165,310.78,317.165z M319.09,298.965
				c-3.322,0-6.476,1.529-10.374,7.017c-0.611,0.86-2.518,3.754-1.397,4.883c1.294,1.305,5.473,1.316,7.332,0.021
				c4.3-3.001,11.087-6.118,16.873-5.79c-1.19-1.845-3.704-4.409-6.165-5.024l-0.374-0.094
				C322.862,299.445,320.949,298.965,319.09,298.965z"/>
			
				<ellipse transform="matrix(0.963 -0.2694 0.2694 0.963 -76.5723 101.248)" fill="#621A40" cx="330.577" cy="329.59" rx="5.051" ry="7.62"/>
			
				<ellipse transform="matrix(0.1016 -0.9948 0.9948 0.1016 30.7455 671.0768)" fill="#621A40" cx="386.912" cy="318.516" rx="7.62" ry="5.051"/>
			<path fill="#621A40" d="M375.148,371.279c1.929-1.007,3.639-1.749,5.273-2.465c1.629-0.708,3.138-1.388,4.563-2.099
				c1.427-0.722,2.702-1.522,4.036-2.469c1.398-0.922,2.54-2.19,4.227-3.663c0.449,2.087,0.157,4.424-1.018,6.34
				c-1.123,1.928-2.86,3.549-4.832,4.525c-1.971,0.982-4.109,1.456-6.203,1.458C379.104,372.876,377.009,372.474,375.148,371.279z"
				/>
			<path fill="#621A40" d="M229.442,395.834c0,0,15.391,44.473,25.217,66.094c9.825,21.621,7.527,49.695,1.965,55.181
				c-5.561,5.486-26.388-12.899-29.195-34.202C224.621,461.605,216.016,415.9,229.442,395.834z"/>
			<path fill="#D4A36C" d="M264.932,654.156c0,0-23.675-99.223-45.649-190.692c-6.436-26.766-12.717-52.879-18.217-75.633
				c-7.882-32.578-14.163-58.295-16.97-69.31c-1.091-4.253-2.268-8.577-3.501-12.958h-0.015
				c-11.866-41.935-29.176-88.293-20.811-115.271c9.257-29.8,58.734-57.529,51.462-72.94c-0.085-0.184-0.184-0.369-0.283-0.553
				c-0.298-0.553-0.652-1.134-1.092-1.758c-11.483-16.559-66.957-50.597-75.761-39.823c-7.571,9.257-25.447,36.378-27.758,48.754
				c-0.525,2.75-0.269,4.763,1.035,5.699c7.202,5.146,42.644-1.021,46.231,5.656c3.601,6.677-30.821,55.998-41.084,51.363
				c-10.278-4.622-45.72-35.952-48.286-60.096c-0.028-0.284-0.057-0.581-0.057-0.893c-1.219-25.107,52.156-101.293,70.941-97.735
				c19.011,3.587,94.007,29.275,113.017,54.964c0.992,1.333,1.843,2.764,2.58,4.267c4.522,9.073,4.749,20.925,2.793,33.06
				c-3.955,24.427-16.757,49.973-21.308,56.168c-7.188,9.754-44.685,53.418-40.064,82.183
				c4.622,28.779,78.596,364.216,78.596,364.216s1.248,11.327,1.446,21.364C272.404,655.885,271.199,665.866,264.932,654.156z"/>
			<path fill="#E7D08D" d="M250.714,87.197c-1.475,0.893-3.374,0.411-5.784-1.9c-18.912-18.09-80.127-35.981-80.127-35.981
				l3.402,9.782L136.25,40.811c-15.225,4.338-68.062,85.358-68.062,85.358l-4.012-0.468c-1.219-25.107,52.156-101.293,70.941-97.735
				c19.011,3.587,94.007,29.275,113.017,54.964C249.126,84.263,249.976,85.695,250.714,87.197z"/>
			<path fill="#E7D08D" d="M234.821,102.934l-31.742,57.572c0,0-29.162,24.299-30.99,35.229c-1.815,10.944,0,41.325,0,41.325
				l-3.913-8.818l12.419,77.32h-0.015c-11.866-41.935-29.176-88.293-20.811-115.271c9.257-29.8,58.734-57.529,51.462-72.94
				c-0.085-0.184-0.184-0.369-0.283-0.553L234.821,102.934z"/>
			<path fill="#B25E56" d="M272.177,644.189c-1.489,9.909-2.864,13-4.026,6.323c-7.216-41.609-41.382-189.87-41.382-189.87
				l-7.485,2.821l-5.43,2.041l-15.368-75.293l2.58-2.382l8.109-7.485L182.722,260.75l20.358-66.83l-15.311,2.424l27.461-20.656
				l35.159-63.058l3.119,7.627c-3.955,24.427-16.757,49.973-21.308,56.168c-7.188,9.754-44.685,53.418-40.064,82.183
				c4.622,28.779,78.596,364.216,78.596,364.216S271.979,634.152,272.177,644.189z"/>
			<path fill="#B25E56" d="M234.821,102.934l-24.965,12.107c-11.483-16.559-66.957-50.597-75.761-39.823
				c-7.571,9.257-25.447,36.378-27.758,48.754l-19.607,6.295c2.708-1.418,29.162-68.8,42.375-71.082
				c13.213-2.283,82.126,39.185,82.126,39.185L234.821,102.934z"/>
			<path fill="#621A40" d="M269.419,663.394c-4.06,0-6.767-5.05-8.001-7.35c-0.162-0.302-0.285-0.625-0.365-0.959
				c-0.694-2.906-69.466-291.124-80.814-335.584c-2.849-11.165-6.431-23.105-9.897-34.653
				c-10.655-35.508-21.672-72.226-14.376-95.738c4.804-15.481,19.25-29.885,31.996-42.593
				c10.398-10.367,22.182-22.118,19.658-27.469c-5.372-11.381-47.63-39.534-65.866-41.777c-3.013-0.369-4.314,0.15-4.581,0.477
				c-11.695,14.292-28.182,42.94-27.127,48.892c2.899,1.438,13.012,1.364,19.804,1.311c15.458-0.115,24.357,0.082,27.267,5.486
				c0.845,1.569,2.824,5.244-6.69,20.966c-5.255,8.681-12.169,17.921-18.498,24.717c-9.26,9.947-15.947,13.507-21.053,11.211
				c-11.847-5.332-47.865-37.464-50.616-63.316c-2.252-21.186,30.943-71.426,52.986-91.752c9.382-8.65,16.776-12.317,22.609-11.216
				c17.566,3.323,94.897,28.703,115.476,56.511c20.585,27.817-8.419,88.049-15.92,98.229c-0.819,1.112-2.024,2.656-3.512,4.562
				c-10.848,13.892-39.66,50.796-35.83,74.632c4.553,28.326,77.814,360.632,78.553,363.984c0.031,0.14,0.053,0.28,0.069,0.422
				c4.228,38.297-1.134,39.961-3.712,40.762C270.44,663.318,269.918,663.394,269.419,663.394z M139.85,69.173
				c0.907,0,1.867,0.062,2.878,0.186c19.946,2.453,65.093,31.436,72.101,46.287c4.924,10.431-6.622,21.942-21.238,36.516
				c-12.09,12.054-25.793,25.717-30.011,39.31c-6.576,21.188,4.086,56.721,14.398,91.084c3.487,11.626,7.096,23.648,9.986,34.974
				c10.769,42.194,73.117,303.34,80.193,332.987c0.262-6.695-0.324-17.543-1.365-27.044
				c-3.631-16.474-74.024-335.807-78.592-364.227c-4.382-27.268,24.909-64.783,37.417-80.803c1.431-1.833,2.591-3.316,3.378-4.386
				c8.057-10.936,32.745-66.034,15.93-88.757c-17.744-23.977-90.643-49.654-110.551-53.421c-1.114-0.213-5.527-0.158-15.724,9.244
				c-23.804,21.95-52.101,69.64-50.463,85.048c2.313,21.744,35.901,52.254,45.855,56.842c0.359-0.02,2.914-0.376,8.825-6.04
				c13.292-12.738,26.169-34.217,26.979-39.763c-2.93-1.416-13.478-1.337-19.939-1.289c-12.707,0.089-20.728-0.06-24.85-3.004
				c-1.105-0.79-2.501-2.313-2.87-5.085c-1.687-12.658,22.485-47.398,28.814-55.134C132.922,70.355,135.892,69.173,139.85,69.173z"
				/>
			<path fill="#FFCFA5" d="M187.112,407.785c0.857-2.271,2.38-4.235,4.338-5.67c6.616-4.851,22.786-15.592,30.161-10.622
				c9.396,6.332,18.3,33.729,16.587,41.263c-1.712,7.534-5.137,12.329-10.959,15.411c-5.822,3.082-16.438,9.589-21.233,6.507
				C201.379,451.701,175.386,438.841,187.112,407.785z"/>
			<path fill="#D77D75" d="M216.142,392.062c0,0,9.569,34.86,7.975,38.733c-1.595,3.873-18.227,12.759-21.873,11.62
				c-3.645-1.139-11.62-4.329-11.62-4.329s9.044,19.523,17.395,18.875c8.351-0.648,25.212-9.078,28.173-18.419
				C239.154,429.2,235.342,396.376,216.142,392.062z"/>
			<path fill="#621A40" d="M209.126,459.454c-1.916,0-3.707-0.418-5.276-1.426c-0.284-0.183-0.656-0.405-1.1-0.671
				c-20.889-12.54-27.405-29.692-19.367-50.979l0,0c1.124-2.976,3.098-5.561,5.709-7.476c11.067-8.114,26.072-16.561,34.746-10.713
				c10.898,7.344,20.351,36.189,18.247,45.452c-1.971,8.668-6.095,14.404-12.98,18.05c-0.643,0.34-1.345,0.723-2.091,1.129
				C221.667,455.734,214.84,459.454,209.126,459.454z M190.841,409.193c-8.751,23.175,4.947,34.686,16.012,41.329
				c0.528,0.317,0.971,0.584,1.308,0.801c2.278,1.453,11.879-3.781,15.038-5.503c0.777-0.423,1.508-0.821,2.176-1.174
				c4.807-2.546,7.48-6.365,8.936-12.772c1.274-5.604-6.73-31.551-14.928-37.074c-3.439-2.325-13.958,2.014-25.577,10.531
				C192.443,406.33,191.418,407.666,190.841,409.193L190.841,409.193z"/>
			<polygon fill="#621A40" points="476.8,350.268 462.211,317.165 491.678,348.544 			"/>
			<polygon fill="#621A40" points="487.192,561.859 486.238,558.865 449.452,443.327 502.076,554.358 			"/>
			<path fill="#621A40" d="M457.14,389.418c0,0-7.005-7.044-9.511-18.148c0,0,13.778,12.165,19.078,9.074L457.14,389.418z"/>
			<polygon fill="#621A40" points="327.156,490.914 336.139,479.781 335.836,494.15 			"/>
			<path fill="#621A40" d="M416.69,680.678c0,0-15.152-33.206-16.486-56.446c0,0-3.88,44.084,3.317,56.446H416.69z"/>
			<polygon fill="#621A40" points="401.519,231.976 418.921,259.231 407.23,226.347 			"/>
			<polygon fill="#621A40" points="429.553,362.063 441.477,375.658 431.962,346.266 			"/>
			<polygon fill="#621A40" points="225.868,403.06 219.788,401.708 229.821,411.775 232.091,407.783 			"/>
			<polygon fill="#621A40" points="233.306,419.327 224.8,415.682 235.585,427.833 			"/>
			<circle fill="#FFFFFF" cx="390.639" cy="315.706" r="2.81"/>
			<circle fill="#FFFFFF" cx="325.818" cy="328.01" r="2.81"/>
			<ellipse fill="#FFECC9" cx="198.485" cy="420.705" rx="5.126" ry="13.964"/>
			
				<ellipse transform="matrix(0.963 -0.2694 0.2694 0.963 -65.5776 104.0118)" fill="#FFECC9" cx="346.144" cy="290.916" rx="11.26" ry="2.749"/>
			<path fill="#7F777F" d="M449.452,443.327c0,0,48.302,78.312,59.846,83.054c11.544,4.741,29.24,5.121,28.556,7.627
				c-0.683,2.506-30.619,21.017-37.366,22.784C493.741,558.559,449.452,443.327,449.452,443.327z"/>
			<polygon fill="#621A40" points="192.798,230.694 182.726,260.75 191.863,256.358 			"/>
			<polygon fill="#621A40" points="209.177,135.54 234.825,102.932 211.224,112.045 			"/>
			<polygon fill="#621A40" points="110.831,135.08 86.728,130.273 107.682,119.236 			"/>
			<path fill="#B25E56" d="M86.728,133.007c0,0,19.594,8.202,27.797,8.202s25.974-4.101,25.974,0
				c0,4.101-25.974,41.467-26.885,36.455c-0.911-5.012,0-26.43,0-26.43L86.728,133.007z"/>
			<g>
				<path fill="#F6D476" d="M87.78,220.747l3.734,3.585c0.877,0.842,2.113,1.199,3.304,0.953l5.07-1.044
					c2.999-0.618,5.405,2.472,4.071,5.228l-2.255,4.66c-0.53,1.094-0.487,2.38,0.114,3.437l2.56,4.499
					c1.514,2.661-0.681,5.904-3.715,5.487l-5.128-0.705c-1.205-0.166-2.414,0.272-3.233,1.171l-3.488,3.825
					c-2.063,2.263-5.826,1.177-6.367-1.837l-0.914-5.095c-0.215-1.197-1.005-2.212-2.112-2.713l-4.715-2.135
					c-2.79-1.263-2.92-5.177-0.22-6.623l4.563-2.444c1.072-0.574,1.793-1.639,1.928-2.848l0.574-5.145
					C81.889,219.959,85.571,218.626,87.78,220.747z"/>
			</g>
			<g>
				<path fill="#F6D476" d="M267.557,178.868l2.684,2.576c0.63,0.605,1.518,0.861,2.374,0.685l3.644-0.75
					c2.155-0.444,3.884,1.776,2.925,3.757l-1.621,3.348c-0.381,0.787-0.35,1.71,0.082,2.47l1.84,3.233
					c1.088,1.913-0.489,4.243-2.669,3.943l-3.685-0.507c-0.866-0.119-1.735,0.196-2.323,0.841l-2.507,2.749
					c-1.483,1.626-4.187,0.846-4.575-1.32l-0.657-3.662c-0.154-0.86-0.722-1.589-1.518-1.95l-3.389-1.535
					c-2.005-0.908-2.098-3.72-0.158-4.759l3.279-1.756c0.77-0.413,1.288-1.178,1.385-2.046l0.412-3.697
					C263.324,178.302,265.97,177.345,267.557,178.868z"/>
			</g>
			<g>
				<path fill="#F6D476" d="M132.808,268.024l0.579,3.084c0.136,0.724,0.62,1.336,1.294,1.634l2.869,1.272
					c1.697,0.752,1.795,3.124,0.166,4.014l-2.755,1.504c-0.647,0.353-1.079,1.002-1.155,1.736l-0.323,3.122
					c-0.191,1.847-2.417,2.673-3.766,1.398l-2.281-2.155c-0.536-0.506-1.287-0.716-2.007-0.562l-3.069,0.658
					c-1.815,0.389-3.289-1.472-2.493-3.15l1.344-2.836c0.316-0.666,0.284-1.445-0.086-2.083l-1.574-2.715
					c-0.931-1.606,0.384-3.583,2.225-3.345l3.112,0.403c0.731,0.095,1.462-0.177,1.954-0.725l2.096-2.336
					C130.18,265.559,132.466,266.199,132.808,268.024z"/>
			</g>
			<g>
				<path fill="#F6D476" d="M241.53,212.266l2.041,2.383c0.48,0.56,1.204,0.848,1.937,0.77l3.121-0.33
					c1.846-0.196,3.115,1.811,2.147,3.395l-1.636,2.678c-0.384,0.629-0.434,1.407-0.134,2.08l1.279,2.866
					c0.756,1.695-0.76,3.522-2.565,3.091l-3.053-0.728c-0.717-0.171-1.473,0.022-2.02,0.515l-2.331,2.102
					c-1.379,1.243-3.585,0.366-3.733-1.484l-0.251-3.128c-0.059-0.735-0.475-1.394-1.114-1.762l-2.719-1.567
					c-1.609-0.927-1.456-3.296,0.258-4.009l2.898-1.205c0.681-0.283,1.178-0.883,1.331-1.604l0.65-3.07
					C238.022,211.442,240.322,210.855,241.53,212.266z"/>
			</g>
		</g>
		<path fill="#D4CFC4" d="M232.598,552.632l-5.125,1.062C227.781,553.586,229.858,552.894,232.598,552.632z"/>
	</g>
	<g>
	</g>
	<g>
	</g>
	<g>
	</g>
	<g>
	</g>
	<g>
	</g>
	<g>
	</g>
</g>
</svg>
